<svg id="Layer_1" xmlns="http://www.w3.org/2000/svg" viewBox="0 0 80 17.46"><path d="M7.8 17.46c-4.81 0-7.8-3.49-7.8-9.1C0 3.44 3.24 0 7.87 0c4.71 0 7.63 3.35 7.63 8.75 0 5.29-3.02 8.71-7.7 8.71M7.87.93c-4.07 0-6.8 2.99-6.8 7.43 0 5.21 2.41 8.2 6.63 8.2s6.74-2.87 6.74-7.67C14.43 3.83 12.04.93 7.87.93M23.61 17.46c-2.75 0-4.43-.86-5.6-2.86L18 16.38c0 .37-.18.59-.48.59-.33 0-.52-.21-.52-.59v-4.61c0-.37.19-.59.52-.59.47 0 .49.26.55 1.11.2 2.49 2.46 4.24 5.47 4.24 3.2 0 5.26-1.53 5.26-3.91 0-.83-.31-1.57-.88-2.07-.67-.63-1.39-.9-3.07-1.14l-2.28-.35c-3.59-.53-5.27-1.91-5.27-4.35 0-2.77 2.46-4.7 5.98-4.7 2.32 0 4.07.8 5.18 2.39l.01-1.31c0-.37.18-.59.48-.59.33 0 .52.21.52.59v4.29c0 .37-.19.59-.52.59-.15 0-.48-.06-.48-.62.01-1.2-.37-2.23-1.11-2.98-.91-.93-2.33-1.42-4.08-1.42-2.92 0-4.88 1.49-4.88 3.7 0 1.77 1.36 2.93 3.84 3.28l2.07.28c2.79.43 3.79.82 4.68 1.86.6.79.9 1.65.9 2.56.02 2.88-2.51 4.83-6.28 4.83"/><path fill="#B9002D" d="M38.51 17.46c-4.73 0-7.56-3.2-7.56-8.57C30.95 3.4 33.81 0 38.41 0c2.61 0 4.64 1.16 5.74 3.26l.01-2.11c0-.37.18-.59.48-.59.33 0 .52.21.52.59v5.13c0 .37-.19.59-.52.59-.41 0-.52-.31-.59-.93-.24-3.09-2.38-5.01-5.58-5.01-3.86 0-6.45 3.14-6.45 7.82 0 2.18.59 4.18 1.66 5.64 1.11 1.46 2.66 2.18 4.72 2.18 2.97 0 5.13-1.64 5.51-4.17.14-.75.22-1 .66-1 .36 0 .59.25.59.66 0 .93-.63 2.32-1.53 3.37-1.22 1.36-2.9 2.03-5.12 2.03M54.47 17.46c-4.81 0-7.8-3.49-7.8-9.1C46.67 3.44 49.9 0 54.54 0c4.71 0 7.63 3.35 7.63 8.75 0 5.29-3.03 8.71-7.7 8.71M54.54.93c-4.07 0-6.8 2.99-6.8 7.43 0 5.21 2.42 8.2 6.63 8.2 4.22 0 6.73-2.87 6.73-7.67 0-5.06-2.39-7.96-6.56-7.96"/><path fill="#B9002D" d="M73.28 16.97c-.3 0-.48-.16-.48-.41s.18-.41.48-.41h2.28c.3 0 .39-.09.39-.4V5.72c0-3.11-1.79-4.83-5.05-4.83-3.4 0-5.51 2.31-5.51 6.02v8.82c0 .3.1.4.39.4h2.24c.45 0 .52.26.52.41s-.07.41-.52.41h-6.27c-.3 0-.48-.16-.48-.41s.18-.41.48-.41h2.21c.3 0 .39-.09.39-.4V1.71c0-.3-.1-.4-.39-.4h-2.21c-.3 0-.48-.16-.48-.41s.18-.41.48-.41h3.05c.4 0 .59.19.59.59v2.19C66.56 1.1 68.47 0 71.08 0c1.76 0 3.41.53 4.41 1.43C76.53 2.37 77 3.68 77 5.69v10.06c0 .3.09.4.39.4h2.14c.3 0 .48.15.48.41s-.18.41-.48.41h-6.25z"/></svg>