<?xml version="1.0" encoding="utf-8"?>
<!-- Generator: Adobe Illustrator 16.0.0, SVG Export Plug-In . SVG Version: 6.00 Build 0)  -->
<!DOCTYPE svg PUBLIC "-//W3C//DTD SVG 1.1//EN" "http://www.w3.org/Graphics/SVG/1.1/DTD/svg11.dtd">
<svg version="1.1" id="Layer_1" xmlns="http://www.w3.org/2000/svg" xmlns:xlink="http://www.w3.org/1999/xlink" x="0px" y="0px"
	 width="185px" height="188px" viewBox="0 0 185 188" enable-background="new 0 0 185 188" xml:space="preserve">
<g>
	<path fill="#4E4E4E" d="M55.571,17.313h6.922v8.644c-1.879,0.644-3.945,0.965-6.198,0.965c-2.472,0-4.382-0.716-5.731-2.15
		c-1.349-1.433-2.024-3.477-2.024-6.132c0-2.589,0.739-4.603,2.216-6.044c1.477-1.44,3.547-2.161,6.208-2.161
		c1.009,0,1.962,0.095,2.858,0.285c0.896,0.19,1.676,0.432,2.342,0.724l-1.371,3.4c-1.156-0.57-2.424-0.855-3.807-0.855
		c-1.265,0-2.243,0.412-2.934,1.234c-0.691,0.823-1.037,1.999-1.037,3.527c0,1.499,0.312,2.642,0.938,3.428
		c0.625,0.786,1.526,1.179,2.704,1.179c0.644,0,1.236-0.062,1.777-0.187v-2.512h-2.863V17.313z"/>
</g>
<g>
	<path fill="#4E4E4E" d="M78.021,18.344c0,2.676-0.737,4.739-2.21,6.187s-3.545,2.172-6.214,2.172h-5.188V10.666h5.551
		c2.574,0,4.561,0.658,5.961,1.975S78.021,15.858,78.021,18.344z M73.524,18.498c0-1.47-0.291-2.56-0.872-3.269
		c-0.582-0.709-1.464-1.064-2.649-1.064h-1.262v8.983h0.965c1.316,0,2.282-0.382,2.896-1.146S73.524,20.07,73.524,18.498z"/>
	<path fill="#4E4E4E" d="M86.008,17.313h6.921v8.644c-1.879,0.644-3.945,0.965-6.197,0.965c-2.472,0-4.382-0.716-5.731-2.15
		c-1.349-1.433-2.024-3.477-2.024-6.132c0-2.589,0.739-4.603,2.216-6.044c1.477-1.44,3.547-2.161,6.208-2.161
		c1.009,0,1.962,0.095,2.858,0.285c0.896,0.19,1.676,0.432,2.342,0.724l-1.372,3.4c-1.156-0.57-2.424-0.855-3.807-0.855
		c-1.265,0-2.243,0.412-2.934,1.234c-0.691,0.823-1.037,1.999-1.037,3.527c0,1.499,0.312,2.642,0.938,3.428
		c0.625,0.786,1.526,1.179,2.704,1.179c0.644,0,1.236-0.062,1.777-0.187v-2.512h-2.863V17.313z"/>
</g>
<g>
	<defs>
		<path id="SVGID_1_" d="M16.209,33.514L1.108,58.763C0.525,60.011,1.13,61,2.629,61H8.91l13.446-22.335l-6.147-10.174
			C17.039,29.87,17.039,32.13,16.209,33.514"/>
	</defs>
	<clipPath id="SVGID_2_">
		<use xlink:href="#SVGID_1_"  overflow="visible"/>
	</clipPath>
	
		<radialGradient id="SVGID_3_" cx="0" cy="188" r="0.9996" gradientTransform="matrix(13.7733 0 0 -13.7733 11.625 2634.1292)" gradientUnits="userSpaceOnUse">
		<stop  offset="0" style="stop-color:#09A960"/>
		<stop  offset="1" style="stop-color:#08914B"/>
	</radialGradient>
	<rect x="0.525" y="28.491" clip-path="url(#SVGID_2_)" fill="url(#SVGID_3_)" width="21.831" height="32.509"/>
</g>
<g>
	<g>
		<path fill="#4E4E4E" d="M115.912,17.967c0,2.676-0.73,4.738-2.192,6.186c-1.463,1.448-3.518,2.171-6.166,2.171h-5.148V10.29h5.508
			c2.554,0,4.525,0.658,5.915,1.974C115.218,13.58,115.912,15.481,115.912,17.967z M111.45,18.121c0-1.469-0.289-2.559-0.865-3.268
			c-0.577-0.709-1.453-1.064-2.629-1.064h-1.252v8.982h0.958c1.307,0,2.264-0.382,2.874-1.146
			C111.146,20.861,111.45,19.693,111.45,18.121z"/>
		<path fill="#4E4E4E" d="M123.152,26.544c-2.054,0-3.647-0.55-4.783-1.65s-1.703-2.667-1.703-4.7c0-2.099,0.525-3.709,1.578-4.832
			c1.052-1.122,2.554-1.684,4.506-1.684c1.857,0,3.292,0.488,4.305,1.464c1.012,0.976,1.519,2.382,1.519,4.217v1.908h-7.608
			c0.029,0.695,0.281,1.239,0.757,1.634c0.475,0.395,1.122,0.592,1.942,0.592c0.747,0,1.435-0.071,2.062-0.214
			s1.308-0.386,2.041-0.729v3.082c-0.668,0.344-1.357,0.581-2.068,0.713C124.988,26.478,124.14,26.544,123.152,26.544z
			 M122.902,16.596c-0.501,0-0.92,0.159-1.257,0.477c-0.338,0.318-0.536,0.817-0.594,1.497h3.657
			c-0.015-0.599-0.184-1.078-0.506-1.437C123.88,16.775,123.446,16.596,122.902,16.596z"/>
		<path fill="#4E4E4E" d="M132.873,26.325l-4.702-12.426h4.44l2.09,7.348c0.008,0.037,0.022,0.099,0.044,0.187
			s0.043,0.192,0.065,0.312c0.021,0.121,0.041,0.249,0.06,0.384c0.018,0.136,0.027,0.262,0.027,0.378h0.076
			c0-0.38,0.065-0.793,0.195-1.239l2.188-7.37h4.43l-4.702,12.426H132.873z"/>
		<path fill="#4E4E4E" d="M146.427,26.325h-4.234V10.29h9.404v3.477h-5.17v3.06h4.767v3.477h-4.767V26.325z"/>
		<path fill="#4E4E4E" d="M158.573,26.544c-2.054,0-3.647-0.55-4.783-1.65s-1.703-2.667-1.703-4.7c0-2.099,0.525-3.709,1.578-4.832
			c1.052-1.122,2.554-1.684,4.506-1.684c1.857,0,3.292,0.488,4.305,1.464c1.012,0.976,1.519,2.382,1.519,4.217v1.908h-7.608
			c0.029,0.695,0.281,1.239,0.757,1.634c0.475,0.395,1.122,0.592,1.942,0.592c0.747,0,1.435-0.071,2.062-0.214
			s1.308-0.386,2.041-0.729v3.082c-0.668,0.344-1.357,0.581-2.068,0.713C160.409,26.478,159.561,26.544,158.573,26.544z
			 M158.323,16.596c-0.501,0-0.92,0.159-1.257,0.477c-0.338,0.318-0.536,0.817-0.594,1.497h3.657
			c-0.015-0.599-0.184-1.078-0.506-1.437C159.301,16.775,158.867,16.596,158.323,16.596z"/>
		<path fill="#4E4E4E" d="M174.586,22.508c0,1.331-0.45,2.336-1.35,3.016c-0.9,0.68-2.191,1.02-3.875,1.02
			c-0.914,0-1.709-0.049-2.384-0.148s-1.364-0.28-2.067-0.543V22.42c0.66,0.292,1.384,0.534,2.171,0.724
			c0.787,0.19,1.489,0.285,2.106,0.285c0.921,0,1.382-0.212,1.382-0.636c0-0.219-0.129-0.415-0.386-0.586
			c-0.258-0.172-1.007-0.506-2.248-1.004c-1.132-0.468-1.923-1-2.373-1.596c-0.449-0.596-0.675-1.351-0.675-2.265
			c0-1.155,0.442-2.055,1.328-2.698c0.885-0.644,2.137-0.965,3.755-0.965c0.812,0,1.576,0.09,2.291,0.269s1.457,0.44,2.227,0.784
			l-1.154,2.764c-0.565-0.256-1.164-0.473-1.796-0.652c-0.631-0.179-1.146-0.269-1.546-0.269c-0.696,0-1.044,0.172-1.044,0.516
			c0,0.212,0.121,0.393,0.364,0.543s0.945,0.455,2.106,0.916c0.863,0.358,1.507,0.709,1.932,1.053s0.736,0.748,0.936,1.212
			C174.486,21.278,174.586,21.843,174.586,22.508z"/>
		<path fill="#4E4E4E" d="M181.65,23.155c0.573,0,1.259-0.143,2.058-0.428v3.126c-0.573,0.249-1.119,0.426-1.639,0.532
			c-0.519,0.105-1.126,0.159-1.822,0.159c-1.43,0-2.46-0.353-3.092-1.058c-0.631-0.706-0.946-1.79-0.946-3.252v-5.122h-1.491v-1.744
			l1.894-1.349l1.1-2.61h2.786v2.49h3.025v3.213h-3.025v4.837C180.497,22.753,180.882,23.155,181.65,23.155z"/>
	</g>
	<g>
		<path fill="#4E4E4E" d="M55.394,47.886h-2.101V36.838h-3.779v-1.802h9.659v1.802h-3.779V47.886z"/>
		<path fill="#4E4E4E" d="M68.412,47.886h-2.074v-5.977c0-0.75-0.151-1.31-0.453-1.679s-0.781-0.554-1.437-0.554
			c-0.867,0-1.504,0.259-1.912,0.778s-0.611,1.387-0.611,2.606v4.825H59.86V34.21h2.065v3.472c0,0.557-0.035,1.151-0.105,1.784
			h0.132c0.281-0.469,0.672-0.832,1.173-1.09s1.085-0.387,1.753-0.387c2.355,0,3.533,1.187,3.533,3.56V47.886z"/>
		<path fill="#4E4E4E" d="M74.469,48.062c-1.512,0-2.694-0.441-3.546-1.323s-1.279-2.096-1.279-3.643
			c0-1.588,0.396-2.836,1.187-3.744s1.878-1.362,3.261-1.362c1.283,0,2.297,0.39,3.041,1.169s1.116,1.852,1.116,3.217v1.116h-6.478
			c0.029,0.943,0.284,1.668,0.765,2.175s1.157,0.76,2.03,0.76c0.574,0,1.109-0.054,1.604-0.163s1.027-0.289,1.595-0.541v1.679
			c-0.504,0.24-1.014,0.41-1.529,0.51S75.131,48.062,74.469,48.062z M74.091,39.554c-0.656,0-1.182,0.208-1.578,0.624
			s-0.631,1.022-0.708,1.819h4.412c-0.012-0.803-0.205-1.411-0.58-1.824S74.747,39.554,74.091,39.554z"/>
		<path fill="#4E4E4E" d="M94.071,47.886h-2.575l-6.319-10.239h-0.07l0.044,0.571c0.082,1.09,0.123,2.086,0.123,2.988v6.68h-1.907
			v-12.85h2.549l6.302,10.187h0.053c-0.012-0.135-0.035-0.625-0.07-1.472s-0.053-1.507-0.053-1.982v-6.732h1.925V47.886z"/>
		<path fill="#4E4E4E" d="M100.428,48.062c-1.512,0-2.694-0.441-3.546-1.323c-0.854-0.882-1.279-2.096-1.279-3.643
			c0-1.588,0.396-2.836,1.187-3.744s1.878-1.362,3.261-1.362c1.283,0,2.297,0.39,3.041,1.169s1.116,1.852,1.116,3.217v1.116h-6.478
			c0.029,0.943,0.284,1.668,0.765,2.175s1.157,0.76,2.03,0.76c0.574,0,1.108-0.054,1.604-0.163s1.027-0.289,1.596-0.541v1.679
			c-0.504,0.24-1.014,0.41-1.529,0.51S101.09,48.062,100.428,48.062z M100.05,39.554c-0.656,0-1.182,0.208-1.578,0.624
			c-0.395,0.416-0.631,1.022-0.707,1.819h4.412c-0.012-0.803-0.205-1.411-0.58-1.824S100.706,39.554,100.05,39.554z"/>
		<path fill="#4E4E4E" d="M109.112,46.392c0.504,0,1.008-0.079,1.512-0.237v1.556c-0.229,0.1-0.523,0.183-0.883,0.25
			c-0.361,0.067-0.734,0.101-1.121,0.101c-1.957,0-2.936-1.031-2.936-3.094v-5.238h-1.327v-0.914l1.424-0.756l0.703-2.057h1.274
			v2.162h2.769v1.564h-2.769v5.203c0,0.498,0.124,0.866,0.373,1.103S108.708,46.392,109.112,46.392z"/>
		<path fill="#4E4E4E" d="M120.057,47.886h-2.074v-5.977c0-0.75-0.151-1.31-0.452-1.679c-0.303-0.369-0.781-0.554-1.438-0.554
			c-0.867,0-1.505,0.259-1.912,0.778s-0.61,1.387-0.61,2.606v4.825h-2.065V34.21h2.065v3.472c0,0.557-0.035,1.151-0.105,1.784h0.132
			c0.281-0.469,0.672-0.832,1.174-1.09c0.5-0.258,1.085-0.387,1.753-0.387c2.355,0,3.533,1.187,3.533,3.56V47.886z"/>
		<path fill="#4E4E4E" d="M126.113,48.062c-1.512,0-2.694-0.441-3.546-1.323c-0.854-0.882-1.279-2.096-1.279-3.643
			c0-1.588,0.396-2.836,1.187-3.744s1.878-1.362,3.261-1.362c1.283,0,2.297,0.39,3.041,1.169s1.116,1.852,1.116,3.217v1.116h-6.478
			c0.029,0.943,0.284,1.668,0.765,2.175s1.157,0.76,2.03,0.76c0.574,0,1.108-0.054,1.604-0.163s1.027-0.289,1.596-0.541v1.679
			c-0.504,0.24-1.014,0.41-1.529,0.51S126.775,48.062,126.113,48.062z M125.735,39.554c-0.656,0-1.182,0.208-1.578,0.624
			c-0.395,0.416-0.631,1.022-0.707,1.819h4.412c-0.012-0.803-0.205-1.411-0.58-1.824S126.392,39.554,125.735,39.554z"/>
		<path fill="#4E4E4E" d="M136.108,37.989c0.416,0,0.759,0.029,1.028,0.088l-0.202,1.925c-0.293-0.07-0.598-0.105-0.914-0.105
			c-0.826,0-1.496,0.27-2.009,0.809s-0.769,1.239-0.769,2.101v5.08h-2.065v-9.721h1.617l0.272,1.714h0.105
			c0.322-0.58,0.743-1.04,1.261-1.38C134.953,38.159,135.511,37.989,136.108,37.989z"/>
		<path fill="#4E4E4E" d="M139.941,47.886h-2.065V34.21h2.065V47.886z"/>
		<path fill="#4E4E4E" d="M147.915,47.886l-0.413-1.354h-0.07c-0.469,0.592-0.94,0.995-1.415,1.208s-1.084,0.321-1.828,0.321
			c-0.955,0-1.701-0.258-2.236-0.773c-0.537-0.516-0.805-1.245-0.805-2.188c0-1.002,0.372-1.758,1.116-2.268
			s1.878-0.788,3.401-0.835l1.679-0.053v-0.519c0-0.621-0.146-1.085-0.435-1.393c-0.291-0.308-0.74-0.461-1.35-0.461
			c-0.498,0-0.976,0.073-1.433,0.22s-0.896,0.319-1.318,0.519l-0.668-1.477c0.527-0.275,1.104-0.485,1.731-0.628
			s1.219-0.215,1.775-0.215c1.236,0,2.169,0.27,2.799,0.809s0.945,1.386,0.945,2.54v6.548H147.915z M144.839,46.479
			c0.75,0,1.352-0.209,1.807-0.628c0.453-0.419,0.681-1.006,0.681-1.762v-0.844l-1.248,0.053c-0.973,0.035-1.681,0.198-2.122,0.488
			c-0.443,0.29-0.664,0.734-0.664,1.332c0,0.434,0.129,0.769,0.387,1.006S144.323,46.479,144.839,46.479z"/>
		<path fill="#4E4E4E" d="M159.764,47.886h-2.074v-5.977c0-0.75-0.151-1.31-0.452-1.679c-0.303-0.369-0.781-0.554-1.438-0.554
			c-0.873,0-1.512,0.258-1.916,0.773s-0.606,1.38-0.606,2.593v4.843h-2.065v-9.721h1.617l0.29,1.274h0.105
			c0.293-0.463,0.709-0.82,1.248-1.072s1.137-0.378,1.793-0.378c2.332,0,3.498,1.187,3.498,3.56V47.886z"/>
		<path fill="#4E4E4E" d="M164.854,48.062c-1.213,0-2.159-0.439-2.839-1.318s-1.02-2.112-1.02-3.7c0-1.594,0.344-2.834,1.033-3.722
			c0.688-0.888,1.642-1.332,2.86-1.332c1.277,0,2.25,0.472,2.918,1.415h0.105c-0.1-0.697-0.149-1.248-0.149-1.652V34.21h2.074
			v13.676h-1.617l-0.36-1.274h-0.097C167.102,47.578,166.132,48.062,164.854,48.062z M165.408,46.392
			c0.85,0,1.468-0.239,1.854-0.716s0.586-1.252,0.598-2.325v-0.29c0-1.225-0.199-2.095-0.598-2.61s-1.022-0.773-1.872-0.773
			c-0.727,0-1.286,0.294-1.679,0.883s-0.589,1.428-0.589,2.518c0,1.078,0.19,1.9,0.571,2.465S164.646,46.392,165.408,46.392z"/>
		<path fill="#4E4E4E" d="M178.259,45.117c0,0.949-0.346,1.677-1.037,2.184s-1.682,0.76-2.971,0.76c-1.295,0-2.335-0.196-3.12-0.589
			v-1.784c1.143,0.527,2.206,0.791,3.19,0.791c1.271,0,1.907-0.384,1.907-1.151c0-0.246-0.07-0.451-0.211-0.615
			s-0.372-0.334-0.694-0.51s-0.771-0.375-1.345-0.598c-1.119-0.434-1.877-0.867-2.271-1.301c-0.396-0.434-0.594-0.996-0.594-1.688
			c0-0.832,0.335-1.478,1.006-1.938s1.584-0.69,2.738-0.69c1.143,0,2.224,0.231,3.243,0.694l-0.668,1.556
			c-1.049-0.434-1.931-0.65-2.646-0.65c-1.09,0-1.635,0.311-1.635,0.932c0,0.305,0.142,0.562,0.426,0.773s0.904,0.501,1.859,0.87
			c0.803,0.311,1.386,0.595,1.749,0.853s0.633,0.555,0.809,0.892S178.259,44.648,178.259,45.117z"/>
	</g>
	<g>
		<defs>
			<path id="SVGID_4_" d="M8.91,61h6.791c1.607,0,3.604-1.128,4.432-2.511l5.719-9.519c0.677-1.396,0.654-3.426-0.118-4.713
				l-3.378-5.592L8.91,61z"/>
		</defs>
		<clipPath id="SVGID_5_">
			<use xlink:href="#SVGID_4_"  overflow="visible"/>
		</clipPath>
		
			<radialGradient id="SVGID_6_" cx="0" cy="188" r="1" gradientTransform="matrix(10.0163 0 0 -10.0163 17.625 1932.8965)" gradientUnits="userSpaceOnUse">
			<stop  offset="0" style="stop-color:#FFCF4F"/>
			<stop  offset="1" style="stop-color:#F4C236"/>
		</radialGradient>
		<rect x="8.91" y="38.665" clip-path="url(#SVGID_5_)" fill="url(#SVGID_6_)" width="17.619" height="22.335"/>
	</g>
	<g>
		<defs>
			<path id="SVGID_7_" d="M2.629,1C1.015,1,0.375,2.133,1.205,3.511l24.529,40.746c0.772,1.287,0.795,3.317,0.118,4.713l5.964-9.925
				L8.914,1H2.629z"/>
		</defs>
		<clipPath id="SVGID_8_">
			<use xlink:href="#SVGID_7_"  overflow="visible"/>
		</clipPath>
		
			<radialGradient id="SVGID_9_" cx="0" cy="188" r="1.0004" gradientTransform="matrix(20.1883 0 0 -20.1883 16.3281 3820.3765)" gradientUnits="userSpaceOnUse">
			<stop  offset="0" style="stop-color:#567FC0"/>
			<stop  offset="1" style="stop-color:#557FC0"/>
		</radialGradient>
		<rect x="0.375" y="1" clip-path="url(#SVGID_8_)" fill="url(#SVGID_9_)" width="31.441" height="47.97"/>
	</g>
</g>
<g>
	<defs>
		<path id="SVGID_10_" d="M8.914,1l22.902,38.045l3.322-5.531c0.83-1.384,0.83-3.644,0-5.023L20.133,3.511
			C19.305,2.133,17.308,1,15.701,1H8.914z"/>
	</defs>
	<clipPath id="SVGID_11_">
		<use xlink:href="#SVGID_10_"  overflow="visible"/>
	</clipPath>
	
		<radialGradient id="SVGID_12_" cx="0" cy="187.998" r="1.0011" gradientTransform="matrix(16.4625 0 0 -16.4625 22.3438 3114.9734)" gradientUnits="userSpaceOnUse">
		<stop  offset="0" style="stop-color:#E14C40"/>
		<stop  offset="1" style="stop-color:#CD392D"/>
	</radialGradient>
	<rect x="8.914" y="1" clip-path="url(#SVGID_11_)" fill="url(#SVGID_12_)" width="27.054" height="38.045"/>
</g>
<g>
	<path fill="#4E4E4E" d="M115.912,80.967c0,2.676-0.73,4.738-2.192,6.186c-1.463,1.448-3.518,2.171-6.166,2.171h-5.148V73.29h5.508
		c2.554,0,4.525,0.658,5.915,1.974C115.218,76.58,115.912,78.481,115.912,80.967z M111.45,81.121c0-1.469-0.289-2.559-0.865-3.268
		c-0.577-0.709-1.453-1.064-2.629-1.064h-1.252v8.982h0.958c1.307,0,2.264-0.382,2.874-1.146
		C111.146,83.861,111.45,82.693,111.45,81.121z"/>
	<path fill="#4E4E4E" d="M123.152,89.544c-2.054,0-3.647-0.55-4.783-1.65s-1.703-2.667-1.703-4.7c0-2.099,0.525-3.709,1.578-4.832
		c1.052-1.122,2.554-1.684,4.506-1.684c1.857,0,3.292,0.488,4.305,1.464c1.012,0.976,1.519,2.382,1.519,4.217v1.908h-7.608
		c0.029,0.695,0.281,1.239,0.757,1.634c0.475,0.395,1.122,0.592,1.942,0.592c0.747,0,1.435-0.071,2.062-0.214
		s1.308-0.386,2.041-0.729v3.082c-0.668,0.344-1.357,0.581-2.068,0.713C124.988,89.478,124.14,89.544,123.152,89.544z
		 M122.902,79.596c-0.501,0-0.92,0.159-1.257,0.477c-0.338,0.318-0.536,0.817-0.594,1.497h3.657
		c-0.015-0.599-0.184-1.078-0.506-1.437C123.88,79.775,123.446,79.596,122.902,79.596z"/>
	<path fill="#4E4E4E" d="M132.873,89.325l-4.702-12.426h4.44l2.09,7.348c0.008,0.037,0.022,0.099,0.044,0.187
		s0.043,0.192,0.065,0.312c0.021,0.121,0.041,0.249,0.06,0.384c0.018,0.136,0.027,0.262,0.027,0.378h0.076
		c0-0.38,0.065-0.793,0.195-1.239l2.188-7.37h4.43l-4.702,12.426H132.873z"/>
	<path fill="#4E4E4E" d="M146.427,89.325h-4.234V73.29h9.404v3.477h-5.17v3.06h4.767v3.477h-4.767V89.325z"/>
	<path fill="#4E4E4E" d="M158.573,89.544c-2.054,0-3.647-0.55-4.783-1.65s-1.703-2.667-1.703-4.7c0-2.099,0.525-3.709,1.578-4.832
		c1.052-1.122,2.554-1.684,4.506-1.684c1.857,0,3.292,0.488,4.305,1.464c1.012,0.976,1.519,2.382,1.519,4.217v1.908h-7.608
		c0.029,0.695,0.281,1.239,0.757,1.634c0.475,0.395,1.122,0.592,1.942,0.592c0.747,0,1.435-0.071,2.062-0.214
		s1.308-0.386,2.041-0.729v3.082c-0.668,0.344-1.357,0.581-2.068,0.713C160.409,89.478,159.561,89.544,158.573,89.544z
		 M158.323,79.596c-0.501,0-0.92,0.159-1.257,0.477c-0.338,0.318-0.536,0.817-0.594,1.497h3.657
		c-0.015-0.599-0.184-1.078-0.506-1.437C159.301,79.775,158.867,79.596,158.323,79.596z"/>
	<path fill="#4E4E4E" d="M174.586,85.508c0,1.331-0.45,2.336-1.35,3.016c-0.9,0.68-2.191,1.02-3.875,1.02
		c-0.914,0-1.709-0.049-2.384-0.148s-1.364-0.28-2.067-0.543V85.42c0.66,0.292,1.384,0.534,2.171,0.724
		c0.787,0.19,1.489,0.285,2.106,0.285c0.921,0,1.382-0.212,1.382-0.636c0-0.219-0.129-0.415-0.386-0.586
		c-0.258-0.172-1.007-0.506-2.248-1.004c-1.132-0.468-1.923-1-2.373-1.596c-0.449-0.596-0.675-1.351-0.675-2.265
		c0-1.155,0.442-2.055,1.328-2.698c0.885-0.644,2.137-0.965,3.755-0.965c0.812,0,1.576,0.09,2.291,0.269s1.457,0.44,2.227,0.784
		l-1.154,2.764c-0.565-0.256-1.164-0.473-1.796-0.652c-0.631-0.179-1.146-0.269-1.546-0.269c-0.696,0-1.044,0.172-1.044,0.516
		c0,0.212,0.121,0.393,0.364,0.543s0.945,0.455,2.106,0.916c0.863,0.358,1.507,0.709,1.932,1.053s0.736,0.748,0.936,1.212
		C174.486,84.278,174.586,84.843,174.586,85.508z"/>
	<path fill="#4E4E4E" d="M181.65,86.155c0.573,0,1.259-0.143,2.058-0.428v3.126c-0.573,0.249-1.119,0.426-1.639,0.532
		c-0.519,0.105-1.126,0.159-1.822,0.159c-1.43,0-2.46-0.353-3.092-1.058c-0.631-0.706-0.946-1.79-0.946-3.252v-5.122h-1.491v-1.744
		l1.894-1.349l1.1-2.61h2.786v2.49h3.025v3.213h-3.025v4.837C180.497,85.753,180.882,86.155,181.65,86.155z"/>
</g>
<g>
	<path fill="#4E4E4E" d="M55.394,110.886h-2.101V99.838h-3.779v-1.802h9.659v1.802h-3.779V110.886z"/>
	<path fill="#4E4E4E" d="M68.412,110.886h-2.074v-5.977c0-0.75-0.151-1.31-0.453-1.679s-0.781-0.554-1.437-0.554
		c-0.867,0-1.504,0.26-1.912,0.777c-0.407,0.52-0.611,1.388-0.611,2.606v4.825H59.86V97.21h2.065v3.472
		c0,0.557-0.035,1.151-0.105,1.784h0.132c0.281-0.469,0.672-0.832,1.173-1.09s1.085-0.387,1.753-0.387
		c2.355,0,3.533,1.187,3.533,3.56V110.886z"/>
	<path fill="#4E4E4E" d="M74.469,111.062c-1.512,0-2.694-0.44-3.546-1.322s-1.279-2.097-1.279-3.644
		c0-1.588,0.396-2.836,1.187-3.744s1.878-1.362,3.261-1.362c1.283,0,2.297,0.39,3.041,1.169s1.116,1.852,1.116,3.217v1.116h-6.478
		c0.029,0.943,0.284,1.669,0.765,2.176s1.157,0.76,2.03,0.76c0.574,0,1.109-0.054,1.604-0.162s1.027-0.289,1.595-0.541v1.679
		c-0.504,0.24-1.014,0.41-1.529,0.51S75.131,111.062,74.469,111.062z M74.091,102.554c-0.656,0-1.182,0.208-1.578,0.624
		s-0.631,1.022-0.708,1.819h4.412c-0.012-0.803-0.205-1.41-0.58-1.824C75.263,102.761,74.747,102.554,74.091,102.554z"/>
	<path fill="#4E4E4E" d="M94.071,110.886h-2.575l-6.319-10.239h-0.07l0.044,0.571c0.082,1.09,0.123,2.086,0.123,2.988v6.68h-1.907
		v-12.85h2.549l6.302,10.187h0.053c-0.012-0.135-0.035-0.625-0.07-1.472s-0.053-1.508-0.053-1.982v-6.732h1.925V110.886z"/>
	<path fill="#4E4E4E" d="M100.428,111.062c-1.512,0-2.694-0.44-3.546-1.322c-0.854-0.882-1.279-2.097-1.279-3.644
		c0-1.588,0.396-2.836,1.187-3.744s1.878-1.362,3.261-1.362c1.283,0,2.297,0.39,3.041,1.169s1.116,1.852,1.116,3.217v1.116h-6.478
		c0.029,0.943,0.284,1.669,0.765,2.176s1.157,0.76,2.03,0.76c0.574,0,1.108-0.054,1.604-0.162s1.027-0.289,1.596-0.541v1.679
		c-0.504,0.24-1.014,0.41-1.529,0.51S101.09,111.062,100.428,111.062z M100.05,102.554c-0.656,0-1.182,0.208-1.578,0.624
		c-0.395,0.416-0.631,1.022-0.707,1.819h4.412c-0.012-0.803-0.205-1.41-0.58-1.824C101.222,102.761,100.706,102.554,100.05,102.554z
		"/>
	<path fill="#4E4E4E" d="M109.112,109.392c0.504,0,1.008-0.079,1.512-0.237v1.556c-0.229,0.1-0.523,0.183-0.883,0.25
		c-0.361,0.067-0.734,0.102-1.121,0.102c-1.957,0-2.936-1.031-2.936-3.094v-5.238h-1.327v-0.914l1.424-0.756l0.703-2.057h1.274
		v2.162h2.769v1.564h-2.769v5.203c0,0.498,0.124,0.865,0.373,1.104C108.381,109.272,108.708,109.392,109.112,109.392z"/>
	<path fill="#4E4E4E" d="M120.057,110.886h-2.074v-5.977c0-0.75-0.151-1.31-0.452-1.679c-0.303-0.369-0.781-0.554-1.438-0.554
		c-0.867,0-1.505,0.26-1.912,0.777c-0.407,0.52-0.61,1.388-0.61,2.606v4.825h-2.065V97.21h2.065v3.472
		c0,0.557-0.035,1.151-0.105,1.784h0.132c0.281-0.469,0.672-0.832,1.174-1.09c0.5-0.258,1.085-0.387,1.753-0.387
		c2.355,0,3.533,1.187,3.533,3.56V110.886z"/>
	<path fill="#4E4E4E" d="M126.113,111.062c-1.512,0-2.694-0.44-3.546-1.322c-0.854-0.882-1.279-2.097-1.279-3.644
		c0-1.588,0.396-2.836,1.187-3.744s1.878-1.362,3.261-1.362c1.283,0,2.297,0.39,3.041,1.169s1.116,1.852,1.116,3.217v1.116h-6.478
		c0.029,0.943,0.284,1.669,0.765,2.176s1.157,0.76,2.03,0.76c0.574,0,1.108-0.054,1.604-0.162s1.027-0.289,1.596-0.541v1.679
		c-0.504,0.24-1.014,0.41-1.529,0.51S126.775,111.062,126.113,111.062z M125.735,102.554c-0.656,0-1.182,0.208-1.578,0.624
		c-0.395,0.416-0.631,1.022-0.707,1.819h4.412c-0.012-0.803-0.205-1.41-0.58-1.824C126.907,102.761,126.392,102.554,125.735,102.554
		z"/>
	<path fill="#4E4E4E" d="M136.108,100.989c0.416,0,0.759,0.029,1.028,0.088l-0.202,1.925c-0.293-0.07-0.598-0.105-0.914-0.105
		c-0.826,0-1.496,0.27-2.009,0.809s-0.769,1.239-0.769,2.101v5.08h-2.065v-9.721h1.617l0.272,1.714h0.105
		c0.322-0.58,0.743-1.04,1.261-1.38C134.953,101.159,135.511,100.989,136.108,100.989z"/>
	<path fill="#4E4E4E" d="M139.941,110.886h-2.065V97.21h2.065V110.886z"/>
	<path fill="#4E4E4E" d="M147.915,110.886l-0.413-1.354h-0.07c-0.469,0.592-0.94,0.995-1.415,1.209
		c-0.475,0.213-1.084,0.32-1.828,0.32c-0.955,0-1.701-0.258-2.236-0.773c-0.537-0.516-0.805-1.245-0.805-2.188
		c0-1.002,0.372-1.758,1.116-2.268s1.878-0.788,3.401-0.835l1.679-0.053v-0.519c0-0.621-0.146-1.085-0.435-1.394
		c-0.291-0.307-0.74-0.461-1.35-0.461c-0.498,0-0.976,0.073-1.433,0.22s-0.896,0.319-1.318,0.519l-0.668-1.477
		c0.527-0.275,1.104-0.484,1.731-0.629c0.627-0.143,1.219-0.215,1.775-0.215c1.236,0,2.169,0.27,2.799,0.809s0.945,1.386,0.945,2.54
		v6.548H147.915z M144.839,109.479c0.75,0,1.352-0.209,1.807-0.629c0.453-0.418,0.681-1.006,0.681-1.762v-0.844l-1.248,0.053
		c-0.973,0.035-1.681,0.197-2.122,0.488c-0.443,0.289-0.664,0.733-0.664,1.331c0,0.434,0.129,0.769,0.387,1.007
		C143.937,109.36,144.323,109.479,144.839,109.479z"/>
	<path fill="#4E4E4E" d="M159.764,110.886h-2.074v-5.977c0-0.75-0.151-1.31-0.452-1.679c-0.303-0.369-0.781-0.554-1.438-0.554
		c-0.873,0-1.512,0.258-1.916,0.773s-0.606,1.38-0.606,2.593v4.843h-2.065v-9.721h1.617l0.29,1.274h0.105
		c0.293-0.463,0.709-0.82,1.248-1.072s1.137-0.378,1.793-0.378c2.332,0,3.498,1.187,3.498,3.56V110.886z"/>
	<path fill="#4E4E4E" d="M164.854,111.062c-1.213,0-2.159-0.439-2.839-1.318s-1.02-2.112-1.02-3.7c0-1.594,0.344-2.835,1.033-3.722
		c0.688-0.889,1.642-1.332,2.86-1.332c1.277,0,2.25,0.472,2.918,1.415h0.105c-0.1-0.697-0.149-1.248-0.149-1.652V97.21h2.074v13.676
		h-1.617l-0.36-1.274h-0.097C167.102,110.578,166.132,111.062,164.854,111.062z M165.408,109.392c0.85,0,1.468-0.238,1.854-0.717
		c0.387-0.477,0.586-1.252,0.598-2.324v-0.29c0-1.225-0.199-2.095-0.598-2.61s-1.022-0.773-1.872-0.773
		c-0.727,0-1.286,0.295-1.679,0.883c-0.393,0.59-0.589,1.429-0.589,2.519c0,1.078,0.19,1.9,0.571,2.466
		S164.646,109.392,165.408,109.392z"/>
	<path fill="#4E4E4E" d="M178.259,108.117c0,0.949-0.346,1.678-1.037,2.185s-1.682,0.76-2.971,0.76c-1.295,0-2.335-0.196-3.12-0.589
		v-1.784c1.143,0.527,2.206,0.791,3.19,0.791c1.271,0,1.907-0.384,1.907-1.151c0-0.246-0.07-0.451-0.211-0.615
		s-0.372-0.334-0.694-0.51s-0.771-0.375-1.345-0.598c-1.119-0.434-1.877-0.867-2.271-1.301c-0.396-0.434-0.594-0.996-0.594-1.688
		c0-0.832,0.335-1.478,1.006-1.938c0.671-0.459,1.584-0.689,2.738-0.689c1.143,0,2.224,0.231,3.243,0.694l-0.668,1.556
		c-1.049-0.434-1.931-0.65-2.646-0.65c-1.09,0-1.635,0.311-1.635,0.932c0,0.305,0.142,0.562,0.426,0.773s0.904,0.501,1.859,0.87
		c0.803,0.311,1.386,0.595,1.749,0.853s0.633,0.556,0.809,0.893S178.259,107.648,178.259,108.117z"/>
</g>
<g>
	<path fill="#4E4E4E" d="M55.571,80.313h6.922v8.644c-1.879,0.644-3.945,0.965-6.198,0.965c-2.472,0-4.382-0.716-5.731-2.15
		c-1.349-1.433-2.024-3.477-2.024-6.132c0-2.589,0.739-4.603,2.216-6.044c1.477-1.44,3.547-2.161,6.208-2.161
		c1.009,0,1.962,0.095,2.858,0.285c0.896,0.19,1.676,0.432,2.342,0.724l-1.371,3.4c-1.156-0.57-2.424-0.855-3.807-0.855
		c-1.265,0-2.243,0.412-2.934,1.234c-0.691,0.823-1.037,1.999-1.037,3.527c0,1.499,0.312,2.642,0.938,3.428
		c0.625,0.786,1.526,1.179,2.704,1.179c0.644,0,1.236-0.062,1.777-0.187v-2.512h-2.863V80.313z"/>
</g>
<g>
	<path fill="#4E4E4E" d="M78.021,81.344c0,2.676-0.737,4.739-2.21,6.187s-3.545,2.172-6.214,2.172h-5.188V73.666h5.551
		c2.574,0,4.561,0.658,5.961,1.975S78.021,78.858,78.021,81.344z M73.524,81.498c0-1.47-0.291-2.56-0.872-3.269
		c-0.582-0.709-1.464-1.064-2.649-1.064h-1.262v8.983h0.965c1.316,0,2.282-0.382,2.896-1.146S73.524,83.07,73.524,81.498z"/>
	<path fill="#4E4E4E" d="M86.008,80.313h6.921v8.644c-1.879,0.644-3.945,0.965-6.197,0.965c-2.472,0-4.382-0.716-5.731-2.15
		c-1.349-1.433-2.024-3.477-2.024-6.132c0-2.589,0.739-4.603,2.216-6.044c1.477-1.44,3.547-2.161,6.208-2.161
		c1.009,0,1.962,0.095,2.858,0.285c0.896,0.19,1.676,0.432,2.342,0.724l-1.372,3.4c-1.156-0.57-2.424-0.855-3.807-0.855
		c-1.265,0-2.243,0.412-2.934,1.234c-0.691,0.823-1.037,1.999-1.037,3.527c0,1.499,0.312,2.642,0.938,3.428
		c0.625,0.786,1.526,1.179,2.704,1.179c0.644,0,1.236-0.062,1.777-0.187v-2.512h-2.863V80.313z"/>
</g>
<g>
	<defs>
		<path id="SVGID_13_" d="M8.91,124h6.791c1.607,0,3.604-1.128,4.432-2.511l5.719-9.52c0.677-1.396,0.654-3.426-0.118-4.713
			l-3.378-5.592L8.91,124z"/>
	</defs>
	<clipPath id="SVGID_14_">
		<use xlink:href="#SVGID_13_"  overflow="visible"/>
	</clipPath>
	
		<radialGradient id="SVGID_15_" cx="0" cy="188" r="1" gradientTransform="matrix(10.0163 0 0 -10.0163 17.625 1995.8887)" gradientUnits="userSpaceOnUse">
		<stop  offset="0" style="stop-color:#D2D3D5"/>
		<stop  offset="1" style="stop-color:#C7C9CA"/>
	</radialGradient>
	<rect x="8.91" y="101.665" clip-path="url(#SVGID_14_)" fill="url(#SVGID_15_)" width="17.619" height="22.335"/>
</g>
<g>
	<defs>
		<path id="SVGID_16_" d="M16.209,96.514L1.108,121.763C0.525,123.011,1.13,124,2.629,124H8.91l13.446-22.335l-6.147-10.174
			C17.039,92.87,17.039,95.13,16.209,96.514"/>
	</defs>
	<clipPath id="SVGID_17_">
		<use xlink:href="#SVGID_16_"  overflow="visible"/>
	</clipPath>
	
		<radialGradient id="SVGID_18_" cx="0" cy="188" r="0.9996" gradientTransform="matrix(13.7733 0 0 -13.7733 11.625 2697.1292)" gradientUnits="userSpaceOnUse">
		<stop  offset="0" style="stop-color:#ADAFB1"/>
		<stop  offset="1" style="stop-color:#909295"/>
	</radialGradient>
	<rect x="0.525" y="91.491" clip-path="url(#SVGID_17_)" fill="url(#SVGID_18_)" width="21.831" height="32.509"/>
</g>
<g>
	<defs>
		<path id="SVGID_19_" d="M2.629,64c-1.614,0-2.254,1.133-1.424,2.511l24.529,40.746c0.772,1.287,0.795,3.317,0.118,4.713
			l5.964-9.925L8.914,64H2.629z"/>
	</defs>
	<clipPath id="SVGID_20_">
		<use xlink:href="#SVGID_19_"  overflow="visible"/>
	</clipPath>
	
		<radialGradient id="SVGID_21_" cx="0" cy="188" r="0.9998" gradientTransform="matrix(20.1883 0 0 -20.1883 16.3281 3883.3765)" gradientUnits="userSpaceOnUse">
		<stop  offset="0" style="stop-color:#96989B"/>
		<stop  offset="1" style="stop-color:#96989B"/>
	</radialGradient>
	<rect x="0.375" y="64" clip-path="url(#SVGID_20_)" fill="url(#SVGID_21_)" width="31.441" height="47.97"/>
</g>
<g>
	<defs>
		<path id="SVGID_22_" d="M8.914,64l22.902,38.045l3.322-5.531c0.83-1.384,0.83-3.644,0-5.022l-15.005-24.98
			C19.305,65.133,17.308,64,15.701,64H8.914z"/>
	</defs>
	<clipPath id="SVGID_23_">
		<use xlink:href="#SVGID_22_"  overflow="visible"/>
	</clipPath>
	
		<radialGradient id="SVGID_24_" cx="0" cy="187.999" r="1.0006" gradientTransform="matrix(16.4625 0 0 -16.4625 22.3438 3177.9734)" gradientUnits="userSpaceOnUse">
		<stop  offset="0" style="stop-color:#7D7F82"/>
		<stop  offset="1" style="stop-color:#696A6C"/>
	</radialGradient>
	<rect x="8.914" y="64" clip-path="url(#SVGID_23_)" fill="url(#SVGID_24_)" width="27.054" height="38.045"/>
</g>
<g>
	<path fill="#E6E6E5" d="M116.07,143.967c0,2.676-0.73,4.738-2.192,6.186c-1.463,1.448-3.518,2.172-6.166,2.172h-5.148v-16.035
		h5.508c2.554,0,4.525,0.658,5.915,1.975S116.07,141.48,116.07,143.967z M111.608,144.12c0-1.47-0.289-2.559-0.865-3.269
		c-0.577-0.709-1.453-1.063-2.629-1.063h-1.252v8.982h0.958c1.307,0,2.264-0.382,2.874-1.146
		C111.304,146.86,111.608,145.692,111.608,144.12z"/>
	<path fill="#E6E6E5" d="M123.311,152.544c-2.054,0-3.647-0.551-4.783-1.651c-1.136-1.1-1.703-2.667-1.703-4.699
		c0-2.099,0.525-3.709,1.578-4.831c1.052-1.123,2.554-1.684,4.506-1.684c1.857,0,3.292,0.487,4.305,1.464
		c1.012,0.977,1.519,2.382,1.519,4.217v1.909h-7.608c0.029,0.694,0.281,1.239,0.757,1.634c0.475,0.395,1.122,0.592,1.942,0.592
		c0.747,0,1.435-0.071,2.062-0.214s1.308-0.385,2.041-0.729v3.081c-0.668,0.344-1.357,0.582-2.068,0.713
		C125.146,152.478,124.298,152.544,123.311,152.544z M123.061,142.596c-0.501,0-0.92,0.159-1.257,0.478
		c-0.338,0.317-0.536,0.816-0.594,1.497h3.657c-0.015-0.6-0.184-1.079-0.506-1.438C124.038,142.775,123.604,142.596,123.061,142.596
		z"/>
	<path fill="#E6E6E5" d="M133.031,152.324l-4.702-12.427h4.44l2.09,7.349c0.008,0.037,0.022,0.099,0.044,0.187
		s0.043,0.192,0.065,0.312c0.021,0.121,0.041,0.249,0.06,0.384c0.018,0.136,0.027,0.262,0.027,0.379h0.076
		c0-0.381,0.065-0.794,0.195-1.239l2.188-7.371h4.43l-4.702,12.427H133.031z"/>
	<path fill="#E6E6E5" d="M146.585,152.324h-4.234v-16.035h9.404v3.478h-5.17v3.06h4.767v3.477h-4.767V152.324z"/>
	<path fill="#E6E6E5" d="M158.731,152.544c-2.054,0-3.647-0.551-4.783-1.651c-1.136-1.1-1.703-2.667-1.703-4.699
		c0-2.099,0.525-3.709,1.578-4.831c1.052-1.123,2.554-1.684,4.506-1.684c1.857,0,3.292,0.487,4.305,1.464
		c1.012,0.977,1.519,2.382,1.519,4.217v1.909h-7.608c0.029,0.694,0.281,1.239,0.757,1.634c0.475,0.395,1.122,0.592,1.942,0.592
		c0.747,0,1.435-0.071,2.062-0.214s1.308-0.385,2.041-0.729v3.081c-0.668,0.344-1.357,0.582-2.068,0.713
		C160.567,152.478,159.719,152.544,158.731,152.544z M158.481,142.596c-0.501,0-0.92,0.159-1.257,0.478
		c-0.338,0.317-0.536,0.816-0.594,1.497h3.657c-0.015-0.6-0.184-1.079-0.506-1.438C159.459,142.775,159.025,142.596,158.481,142.596
		z"/>
	<path fill="#E6E6E5" d="M174.744,148.508c0,1.33-0.45,2.336-1.35,3.016c-0.9,0.68-2.191,1.021-3.875,1.021
		c-0.914,0-1.709-0.05-2.384-0.148s-1.364-0.279-2.067-0.543v-3.433c0.66,0.292,1.384,0.533,2.171,0.724s1.489,0.285,2.106,0.285
		c0.921,0,1.382-0.212,1.382-0.636c0-0.22-0.129-0.415-0.386-0.587c-0.258-0.172-1.007-0.507-2.248-1.004
		c-1.132-0.468-1.923-1-2.373-1.596c-0.449-0.596-0.675-1.351-0.675-2.265c0-1.155,0.442-2.055,1.328-2.698
		c0.885-0.644,2.137-0.965,3.755-0.965c0.812,0,1.576,0.089,2.291,0.269c0.715,0.179,1.457,0.44,2.227,0.784l-1.154,2.764
		c-0.565-0.256-1.164-0.474-1.796-0.652c-0.631-0.18-1.146-0.269-1.546-0.269c-0.696,0-1.044,0.172-1.044,0.515
		c0,0.213,0.121,0.394,0.364,0.543c0.243,0.15,0.945,0.456,2.106,0.916c0.863,0.358,1.507,0.71,1.932,1.053
		c0.425,0.344,0.736,0.748,0.936,1.212C174.645,147.277,174.744,147.842,174.744,148.508z"/>
	<path fill="#E6E6E5" d="M181.809,149.154c0.573,0,1.259-0.143,2.058-0.428v3.126c-0.573,0.249-1.119,0.426-1.639,0.532
		c-0.519,0.105-1.126,0.159-1.822,0.159c-1.43,0-2.46-0.354-3.092-1.059c-0.631-0.706-0.946-1.79-0.946-3.252v-5.122h-1.491v-1.744
		l1.894-1.349l1.1-2.61h2.786v2.489h3.025v3.214h-3.025v4.837C180.655,148.753,181.04,149.154,181.809,149.154z"/>
</g>
<g>
</g>
<g>
	<path fill="#E6E6E5" d="M55.235,173.886h-2.101v-11.048h-3.779v-1.802h9.659v1.802h-3.779V173.886z"/>
	<path fill="#E6E6E5" d="M68.235,173.886h-2.074v-5.977c0-0.75-0.151-1.31-0.453-1.679s-0.781-0.554-1.437-0.554
		c-0.867,0-1.504,0.26-1.912,0.777c-0.407,0.52-0.611,1.388-0.611,2.606v4.825h-2.065V160.21h2.065v3.472
		c0,0.557-0.035,1.151-0.105,1.784h0.132c0.281-0.469,0.672-0.832,1.173-1.09s1.085-0.387,1.753-0.387
		c2.355,0,3.533,1.187,3.533,3.56V173.886z"/>
	<path fill="#E6E6E5" d="M74.274,174.062c-1.512,0-2.694-0.44-3.546-1.322s-1.279-2.097-1.279-3.644
		c0-1.588,0.396-2.836,1.187-3.744s1.878-1.362,3.261-1.362c1.283,0,2.297,0.39,3.041,1.169s1.116,1.852,1.116,3.217v1.116h-6.478
		c0.029,0.943,0.284,1.669,0.765,2.176s1.157,0.76,2.03,0.76c0.574,0,1.109-0.054,1.604-0.162s1.027-0.289,1.595-0.541v1.679
		c-0.504,0.24-1.014,0.41-1.529,0.51S74.936,174.062,74.274,174.062z M73.896,165.554c-0.656,0-1.182,0.208-1.578,0.624
		s-0.631,1.022-0.708,1.819h4.412c-0.012-0.803-0.205-1.41-0.58-1.824C75.068,165.761,74.552,165.554,73.896,165.554z"/>
	<path fill="#E6E6E5" d="M93.841,173.886h-2.575l-6.319-10.239h-0.07l0.044,0.571c0.082,1.09,0.123,2.086,0.123,2.988v6.68h-1.907
		v-12.85h2.549l6.302,10.187h0.053c-0.012-0.135-0.035-0.625-0.07-1.472s-0.053-1.508-0.053-1.982v-6.732h1.925V173.886z"/>
	<path fill="#E6E6E5" d="M100.179,174.062c-1.512,0-2.694-0.44-3.546-1.322c-0.854-0.882-1.279-2.097-1.279-3.644
		c0-1.588,0.396-2.836,1.187-3.744s1.878-1.362,3.261-1.362c1.283,0,2.297,0.39,3.041,1.169s1.116,1.852,1.116,3.217v1.116H97.48
		c0.029,0.943,0.284,1.669,0.765,2.176s1.157,0.76,2.03,0.76c0.574,0,1.108-0.054,1.604-0.162s1.027-0.289,1.596-0.541v1.679
		c-0.504,0.24-1.014,0.41-1.529,0.51S100.841,174.062,100.179,174.062z M99.801,165.554c-0.656,0-1.182,0.208-1.578,0.624
		c-0.395,0.416-0.631,1.022-0.707,1.819h4.412c-0.012-0.803-0.205-1.41-0.58-1.824C100.973,165.761,100.457,165.554,99.801,165.554z
		"/>
	<path fill="#E6E6E5" d="M108.846,172.392c0.504,0,1.008-0.079,1.512-0.237v1.556c-0.229,0.1-0.523,0.183-0.883,0.25
		c-0.361,0.067-0.734,0.102-1.121,0.102c-1.957,0-2.936-1.031-2.936-3.094v-5.238h-1.327v-0.914l1.424-0.756l0.703-2.057h1.274
		v2.162h2.769v1.564h-2.769v5.203c0,0.498,0.124,0.865,0.373,1.104C108.114,172.272,108.441,172.392,108.846,172.392z"/>
	<path fill="#E6E6E5" d="M119.771,173.886h-2.074v-5.977c0-0.75-0.151-1.31-0.452-1.679c-0.303-0.369-0.781-0.554-1.438-0.554
		c-0.867,0-1.505,0.26-1.912,0.777c-0.407,0.52-0.61,1.388-0.61,2.606v4.825h-2.065V160.21h2.065v3.472
		c0,0.557-0.035,1.151-0.105,1.784h0.132c0.281-0.469,0.672-0.832,1.174-1.09c0.5-0.258,1.085-0.387,1.753-0.387
		c2.355,0,3.533,1.187,3.533,3.56V173.886z"/>
	<path fill="#E6E6E5" d="M125.811,174.062c-1.512,0-2.694-0.44-3.546-1.322c-0.854-0.882-1.279-2.097-1.279-3.644
		c0-1.588,0.396-2.836,1.187-3.744s1.878-1.362,3.261-1.362c1.283,0,2.297,0.39,3.041,1.169s1.116,1.852,1.116,3.217v1.116h-6.478
		c0.029,0.943,0.284,1.669,0.765,2.176s1.157,0.76,2.03,0.76c0.574,0,1.108-0.054,1.604-0.162s1.027-0.289,1.596-0.541v1.679
		c-0.504,0.24-1.014,0.41-1.529,0.51S126.473,174.062,125.811,174.062z M125.433,165.554c-0.656,0-1.182,0.208-1.578,0.624
		c-0.395,0.416-0.631,1.022-0.707,1.819h4.412c-0.012-0.803-0.205-1.41-0.58-1.824C126.604,165.761,126.089,165.554,125.433,165.554
		z"/>
	<path fill="#E6E6E5" d="M135.787,163.989c0.416,0,0.759,0.029,1.028,0.088l-0.202,1.925c-0.293-0.07-0.598-0.105-0.914-0.105
		c-0.826,0-1.496,0.27-2.009,0.809s-0.769,1.239-0.769,2.101v5.08h-2.065v-9.721h1.617l0.272,1.714h0.105
		c0.322-0.58,0.743-1.04,1.261-1.38C134.632,164.159,135.189,163.989,135.787,163.989z"/>
	<path fill="#E6E6E5" d="M139.603,173.886h-2.065V160.21h2.065V173.886z"/>
	<path fill="#E6E6E5" d="M147.558,173.886l-0.413-1.354h-0.07c-0.469,0.592-0.94,0.995-1.415,1.209
		c-0.475,0.213-1.084,0.32-1.828,0.32c-0.955,0-1.701-0.258-2.236-0.773c-0.537-0.516-0.805-1.245-0.805-2.188
		c0-1.002,0.372-1.758,1.116-2.268s1.878-0.788,3.401-0.835l1.679-0.053v-0.519c0-0.621-0.146-1.085-0.435-1.394
		c-0.291-0.307-0.74-0.461-1.35-0.461c-0.498,0-0.976,0.073-1.433,0.22s-0.896,0.319-1.318,0.519l-0.668-1.477
		c0.527-0.275,1.104-0.484,1.731-0.629c0.627-0.143,1.219-0.215,1.775-0.215c1.236,0,2.169,0.27,2.799,0.809s0.945,1.386,0.945,2.54
		v6.548H147.558z M144.481,172.479c0.75,0,1.352-0.209,1.807-0.629c0.453-0.418,0.681-1.006,0.681-1.762v-0.844l-1.248,0.053
		c-0.973,0.035-1.681,0.197-2.122,0.488c-0.443,0.289-0.664,0.733-0.664,1.331c0,0.434,0.129,0.769,0.387,1.007
		C143.579,172.36,143.966,172.479,144.481,172.479z"/>
	<path fill="#E6E6E5" d="M159.389,173.886h-2.074v-5.977c0-0.75-0.151-1.31-0.452-1.679c-0.303-0.369-0.781-0.554-1.438-0.554
		c-0.873,0-1.512,0.258-1.916,0.773s-0.606,1.38-0.606,2.593v4.843h-2.065v-9.721h1.617l0.29,1.274h0.105
		c0.293-0.463,0.709-0.82,1.248-1.072s1.137-0.378,1.793-0.378c2.332,0,3.498,1.187,3.498,3.56V173.886z"/>
	<path fill="#E6E6E5" d="M164.462,174.062c-1.213,0-2.159-0.439-2.839-1.318s-1.02-2.112-1.02-3.7c0-1.594,0.344-2.835,1.033-3.722
		c0.688-0.889,1.642-1.332,2.86-1.332c1.277,0,2.25,0.472,2.918,1.415h0.105c-0.1-0.697-0.149-1.248-0.149-1.652v-3.542h2.074
		v13.676h-1.617l-0.36-1.274h-0.097C166.709,173.578,165.739,174.062,164.462,174.062z M165.016,172.392
		c0.85,0,1.468-0.238,1.854-0.717c0.387-0.477,0.586-1.252,0.598-2.324v-0.29c0-1.225-0.199-2.095-0.598-2.61
		s-1.022-0.773-1.872-0.773c-0.727,0-1.286,0.295-1.679,0.883c-0.393,0.59-0.589,1.429-0.589,2.519c0,1.078,0.19,1.9,0.571,2.466
		S164.254,172.392,165.016,172.392z"/>
	<path fill="#E6E6E5" d="M177.849,171.117c0,0.949-0.346,1.678-1.037,2.185s-1.682,0.76-2.971,0.76c-1.295,0-2.335-0.196-3.12-0.589
		v-1.784c1.143,0.527,2.206,0.791,3.19,0.791c1.271,0,1.907-0.384,1.907-1.151c0-0.246-0.07-0.451-0.211-0.615
		s-0.372-0.334-0.694-0.51s-0.771-0.375-1.345-0.598c-1.119-0.434-1.877-0.867-2.271-1.301c-0.396-0.434-0.594-0.996-0.594-1.688
		c0-0.832,0.335-1.478,1.006-1.938c0.671-0.459,1.584-0.689,2.738-0.689c1.143,0,2.224,0.231,3.243,0.694l-0.668,1.556
		c-1.049-0.434-1.931-0.65-2.646-0.65c-1.09,0-1.635,0.311-1.635,0.932c0,0.305,0.142,0.562,0.426,0.773s0.904,0.501,1.859,0.87
		c0.803,0.311,1.386,0.595,1.749,0.853s0.633,0.556,0.809,0.893S177.849,170.648,177.849,171.117z"/>
</g>
<g>
	<path fill="#E6E6E5" d="M55.729,143.313h6.922v8.644c-1.879,0.644-3.945,0.966-6.198,0.966c-2.472,0-4.382-0.717-5.731-2.15
		s-2.024-3.478-2.024-6.132c0-2.589,0.739-4.604,2.216-6.044s3.547-2.161,6.208-2.161c1.009,0,1.962,0.096,2.858,0.285
		c0.896,0.19,1.676,0.432,2.342,0.725l-1.371,3.4c-1.156-0.57-2.424-0.855-3.807-0.855c-1.265,0-2.243,0.411-2.934,1.233
		c-0.691,0.823-1.037,1.998-1.037,3.526c0,1.5,0.312,2.643,0.938,3.429c0.625,0.786,1.526,1.179,2.704,1.179
		c0.644,0,1.236-0.062,1.777-0.187v-2.512h-2.863V143.313z"/>
</g>
<g>
	<path fill="#E6E6E5" d="M78.18,144.345c0,2.677-0.737,4.738-2.21,6.187s-3.545,2.172-6.214,2.172h-5.188v-16.037h5.551
		c2.574,0,4.561,0.658,5.961,1.975S78.18,141.858,78.18,144.345z M73.683,144.498c0-1.47-0.291-2.56-0.872-3.269
		s-1.464-1.064-2.649-1.064H68.9v8.984h0.965c1.316,0,2.282-0.383,2.896-1.146C73.375,147.238,73.683,146.07,73.683,144.498z"/>
	<path fill="#E6E6E5" d="M86.167,143.313h6.922v8.644c-1.879,0.644-3.945,0.966-6.198,0.966c-2.472,0-4.382-0.717-5.731-2.15
		s-2.024-3.478-2.024-6.132c0-2.589,0.739-4.604,2.216-6.044s3.547-2.161,6.208-2.161c1.009,0,1.962,0.096,2.858,0.285
		c0.896,0.19,1.676,0.432,2.342,0.725l-1.371,3.4c-1.156-0.57-2.424-0.855-3.807-0.855c-1.265,0-2.243,0.411-2.934,1.233
		c-0.691,0.823-1.037,1.998-1.037,3.526c0,1.5,0.312,2.643,0.938,3.429c0.625,0.786,1.526,1.179,2.704,1.179
		c0.644,0,1.236-0.062,1.777-0.187v-2.512h-2.863V143.313z"/>
</g>
<g>
	<defs>
		<path id="SVGID_25_" d="M9.068,187h6.792c1.606,0,3.603-1.128,4.431-2.511l5.72-9.52c0.677-1.396,0.653-3.426-0.119-4.713
			l-3.378-5.592L9.068,187z"/>
	</defs>
	<clipPath id="SVGID_26_">
		<use xlink:href="#SVGID_25_"  overflow="visible"/>
	</clipPath>
	
		<radialGradient id="SVGID_27_" cx="0" cy="187.998" r="1.0011" gradientTransform="matrix(10.0163 0 0 -10.0163 17.7812 2058.8887)" gradientUnits="userSpaceOnUse">
		<stop  offset="0" style="stop-color:#FFCF4F"/>
		<stop  offset="1" style="stop-color:#F4C236"/>
	</radialGradient>
	<rect x="9.068" y="164.665" clip-path="url(#SVGID_26_)" fill="url(#SVGID_27_)" width="17.62" height="22.335"/>
</g>
<g>
	<defs>
		<path id="SVGID_28_" d="M16.367,159.514L1.266,184.763C0.683,186.011,1.289,187,2.787,187h6.281l13.446-22.335l-6.147-10.174
			C17.197,155.87,17.197,158.13,16.367,159.514"/>
	</defs>
	<clipPath id="SVGID_29_">
		<use xlink:href="#SVGID_28_"  overflow="visible"/>
	</clipPath>
	
		<radialGradient id="SVGID_30_" cx="0" cy="188" r="0.9997" gradientTransform="matrix(13.7733 0 0 -13.7733 11.7812 2760.1292)" gradientUnits="userSpaceOnUse">
		<stop  offset="0" style="stop-color:#09A960"/>
		<stop  offset="1" style="stop-color:#08914B"/>
	</radialGradient>
	<rect x="0.683" y="154.491" clip-path="url(#SVGID_29_)" fill="url(#SVGID_30_)" width="21.831" height="32.509"/>
</g>
<g>
	<defs>
		<path id="SVGID_31_" d="M2.787,127c-1.613,0-2.253,1.133-1.424,2.511l24.529,40.746c0.772,1.287,0.796,3.317,0.119,4.713
			l5.963-9.925L9.072,127H2.787z"/>
	</defs>
	<clipPath id="SVGID_32_">
		<use xlink:href="#SVGID_31_"  overflow="visible"/>
	</clipPath>
	
		<radialGradient id="SVGID_33_" cx="0" cy="188" r="1.0004" gradientTransform="matrix(20.1883 0 0 -20.1883 16.4844 3946.3765)" gradientUnits="userSpaceOnUse">
		<stop  offset="0" style="stop-color:#567FC0"/>
		<stop  offset="1" style="stop-color:#557FC0"/>
	</radialGradient>
	<rect x="0.534" y="127" clip-path="url(#SVGID_32_)" fill="url(#SVGID_33_)" width="31.44" height="47.97"/>
</g>
<g>
	<defs>
		<path id="SVGID_34_" d="M9.072,127l22.902,38.045l3.322-5.531c0.83-1.384,0.83-3.644,0-5.022l-15.005-24.98
			C19.463,128.133,17.466,127,15.86,127H9.072z"/>
	</defs>
	<clipPath id="SVGID_35_">
		<use xlink:href="#SVGID_34_"  overflow="visible"/>
	</clipPath>
	
		<radialGradient id="SVGID_36_" cx="0" cy="187.999" r="1.0006" gradientTransform="matrix(16.4625 0 0 -16.4625 22.5 3240.9734)" gradientUnits="userSpaceOnUse">
		<stop  offset="0" style="stop-color:#E14C40"/>
		<stop  offset="1" style="stop-color:#CD392D"/>
	</radialGradient>
	<rect x="9.072" y="127" clip-path="url(#SVGID_35_)" fill="url(#SVGID_36_)" width="27.054" height="38.045"/>
</g>
</svg>
