<svg id="Layer_1" xmlns="http://www.w3.org/2000/svg" xmlns:xlink="http://www.w3.org/1999/xlink" width="185" height="188" viewBox="0 0 185 188"><g><path fill="#4E4E4E" d="M55.57 17.313h6.923v8.644c-1.88.644-3.945.965-6.198.965-2.472 0-4.382-.716-5.73-2.15-1.35-1.433-2.025-3.477-2.025-6.132 0-2.59.74-4.603 2.216-6.044 1.477-1.44 3.547-2.16 6.208-2.16 1.01 0 1.962.094 2.858.284.896.19 1.676.432 2.342.724l-1.37 3.4c-1.157-.57-2.425-.855-3.808-.855-1.265 0-2.243.41-2.934 1.233-.69.823-1.037 2-1.037 3.527 0 1.5.312 2.642.938 3.428.625.786 1.526 1.18 2.704 1.18.644 0 1.236-.063 1.777-.188v-2.512H55.57v-3.345z"/></g><g fill="#4E4E4E"><path d="M78.02 18.344c0 2.676-.736 4.74-2.21 6.187s-3.544 2.173-6.213 2.173H64.41V10.666h5.55c2.574 0 4.56.658 5.96 1.975s2.1 3.218 2.1 5.704zm-4.496.154c0-1.47-.29-2.56-.872-3.27-.582-.708-1.464-1.063-2.65-1.063h-1.26v8.983h.964c1.316 0 2.282-.382 2.896-1.146s.922-1.932.922-3.504zM86.008 17.313h6.92v8.644c-1.878.644-3.944.965-6.196.965-2.472 0-4.382-.716-5.73-2.15-1.35-1.433-2.025-3.477-2.025-6.132 0-2.59.74-4.603 2.216-6.044 1.477-1.44 3.547-2.16 6.208-2.16 1.01 0 1.963.094 2.86.284.895.19 1.675.432 2.34.724l-1.37 3.4c-1.157-.57-2.425-.855-3.808-.855-1.265 0-2.243.41-2.934 1.233-.69.823-1.037 2-1.037 3.527 0 1.5.313 2.642.94 3.428.624.786 1.525 1.18 2.703 1.18.644 0 1.236-.063 1.777-.188v-2.512h-2.863v-3.345z"/></g><g><defs><path id="SVGID_1_" d="M16.21 33.514L1.107 58.764C.525 60.01 1.13 61 2.628 61H8.91l13.446-22.335L16.21 28.49c.83 1.38.83 3.64 0 5.024"/></defs><clipPath id="SVGID_2_"><use xlink:href="#SVGID_1_" overflow="visible"/></clipPath><radialGradient id="SVGID_3_" cx="0" cy="188" r="1" gradientTransform="matrix(13.7733 0 0 -13.7733 11.625 2634.13)" gradientUnits="userSpaceOnUse"><stop offset="0" stop-color="#09A960"/><stop offset="1" stop-color="#08914B"/></radialGradient><path clip-path="url(#SVGID_2_)" fill="url(#SVGID_3_)" d="M.525 28.49h21.83V61H.526z"/></g><g><g fill="#4E4E4E"><path d="M115.912 17.967c0 2.676-.73 4.738-2.192 6.186-1.463 1.448-3.518 2.17-6.166 2.17h-5.148V10.29h5.508c2.554 0 4.525.658 5.915 1.974 1.388 1.316 2.082 3.217 2.082 5.703zm-4.462.154c0-1.468-.29-2.558-.865-3.267-.577-.71-1.453-1.064-2.63-1.064h-1.25v8.98h.957c1.307 0 2.264-.38 2.874-1.145.61-.764.914-1.932.914-3.504zM123.152 26.544c-2.054 0-3.647-.55-4.783-1.65s-1.704-2.667-1.704-4.7c0-2.1.525-3.71 1.578-4.832 1.052-1.122 2.554-1.684 4.506-1.684 1.857 0 3.292.488 4.305 1.464 1.012.976 1.52 2.382 1.52 4.217v1.907h-7.61c.03.695.282 1.24.758 1.634.475.396 1.122.593 1.942.593.747 0 1.435-.07 2.062-.214s1.308-.387 2.04-.73v3.082c-.667.344-1.356.58-2.067.713-.712.133-1.56.2-2.548.2zm-.25-9.948c-.5 0-.92.16-1.257.477-.338.318-.536.817-.594 1.497h3.658c-.015-.6-.184-1.078-.506-1.437-.322-.358-.756-.537-1.3-.537zM132.873 26.325L128.17 13.9h4.44l2.09 7.347c.01.037.023.1.045.187s.043.192.065.312c.02.12.04.25.06.384.018.136.027.262.027.378h.076c0-.38.065-.793.195-1.24l2.188-7.37h4.43l-4.702 12.427h-4.21zM146.427 26.325h-4.234V10.29h9.404v3.477h-5.17v3.06h4.767v3.477h-4.767v6.02zM158.573 26.544c-2.054 0-3.647-.55-4.783-1.65s-1.703-2.667-1.703-4.7c0-2.1.525-3.71 1.578-4.832 1.052-1.122 2.554-1.684 4.506-1.684 1.858 0 3.293.488 4.306 1.464 1.012.976 1.52 2.382 1.52 4.217v1.907h-7.61c.03.695.282 1.24.758 1.634.475.396 1.122.593 1.942.593.747 0 1.435-.07 2.062-.214s1.308-.387 2.04-.73v3.082c-.667.344-1.356.58-2.067.713-.71.133-1.56.2-2.547.2zm-.25-9.948c-.5 0-.92.16-1.257.477-.338.318-.536.817-.594 1.497h3.657c-.016-.6-.185-1.078-.507-1.437-.322-.358-.756-.537-1.3-.537zM174.586 22.508c0 1.33-.45 2.336-1.35 3.016-.9.68-2.19 1.02-3.875 1.02-.913 0-1.708-.05-2.383-.148s-1.364-.28-2.067-.543V22.42c.66.292 1.384.534 2.17.724.788.19 1.49.285 2.107.285.92 0 1.382-.213 1.382-.637 0-.22-.13-.415-.387-.586-.258-.172-1.007-.506-2.248-1.004-1.132-.468-1.923-1-2.373-1.596-.45-.596-.675-1.35-.675-2.265 0-1.155.442-2.055 1.328-2.698.885-.644 2.137-.965 3.755-.965.812 0 1.576.09 2.29.268s1.458.44 2.228.784l-1.154 2.764c-.565-.256-1.164-.473-1.796-.652-.63-.18-1.146-.27-1.546-.27-.696 0-1.044.173-1.044.517 0 .213.12.394.364.544s.945.455 2.106.916c.863.358 1.507.71 1.932 1.053s.736.748.936 1.212c.2.463.3 1.028.3 1.693zM181.65 23.155c.573 0 1.26-.143 2.058-.428v3.126c-.573.25-1.12.426-1.64.532-.518.105-1.125.16-1.82.16-1.43 0-2.46-.354-3.093-1.06-.63-.705-.946-1.79-.946-3.25V17.11h-1.492v-1.744l1.894-1.35 1.1-2.61h2.786v2.49h3.025v3.214h-3.025v4.837c0 .803.384 1.205 1.152 1.205z"/></g><g fill="#4E4E4E"><path d="M55.394 47.886h-2.1V36.838h-3.78v-1.802h9.66v1.802h-3.78v11.048zM68.412 47.886h-2.074V41.91c0-.75-.15-1.31-.453-1.68s-.78-.554-1.437-.554c-.867 0-1.504.26-1.912.778s-.61 1.387-.61 2.606v4.825H59.86V34.21h2.065v3.472c0 .557-.035 1.15-.105 1.784h.132c.28-.47.672-.832 1.173-1.09s1.085-.387 1.753-.387c2.355 0 3.533 1.186 3.533 3.56v6.336zM74.47 48.062c-1.513 0-2.695-.44-3.547-1.323s-1.28-2.097-1.28-3.644c0-1.588.397-2.836 1.188-3.744s1.88-1.362 3.262-1.362c1.283 0 2.297.39 3.04 1.17s1.117 1.85 1.117 3.216v1.116h-6.48c.03.943.285 1.668.766 2.175s1.157.76 2.03.76c.574 0 1.11-.054 1.604-.163s1.027-.29 1.595-.54V47.4c-.504.24-1.014.41-1.53.51s-1.104.15-1.766.15zm-.38-8.508c-.655 0-1.18.208-1.577.624s-.63 1.022-.708 1.82h4.412c-.012-.804-.205-1.412-.58-1.825s-.89-.62-1.546-.62zM94.07 47.886h-2.574l-6.32-10.24h-.07l.045.572c.083 1.09.124 2.086.124 2.988v6.68h-1.907v-12.85h2.55l6.3 10.187h.054c-.01-.135-.034-.625-.07-1.472s-.052-1.506-.052-1.98v-6.733h1.925v12.85zM100.428 48.062c-1.512 0-2.694-.44-3.546-1.323-.854-.883-1.28-2.097-1.28-3.644 0-1.588.397-2.836 1.188-3.744s1.878-1.362 3.26-1.362c1.284 0 2.298.39 3.042 1.17s1.116 1.85 1.116 3.216v1.116H97.73c.03.943.284 1.668.765 2.175s1.157.76 2.03.76c.574 0 1.108-.054 1.604-.163s1.026-.29 1.595-.54V47.4c-.504.24-1.014.41-1.53.51s-1.105.15-1.767.15zm-.378-8.508c-.656 0-1.182.208-1.578.624-.395.416-.63 1.022-.707 1.82h4.412c-.012-.804-.205-1.412-.58-1.825s-.89-.62-1.547-.62zM109.112 46.392c.504 0 1.008-.08 1.512-.237v1.556c-.23.1-.523.184-.883.25-.36.068-.733.102-1.12.102-1.957 0-2.936-1.03-2.936-3.094V39.73h-1.327v-.914l1.424-.756.704-2.057h1.274v2.162h2.77v1.564h-2.77v5.202c0 .498.124.866.373 1.103s.578.357.982.357zM120.057 47.886h-2.074V41.91c0-.75-.15-1.31-.452-1.68-.302-.37-.78-.554-1.437-.554-.867 0-1.505.26-1.912.778s-.61 1.387-.61 2.606v4.825h-2.064V34.21h2.065v3.472c0 .557-.034 1.15-.104 1.784h.132c.28-.47.672-.832 1.174-1.09.5-.258 1.085-.387 1.753-.387 2.355 0 3.533 1.186 3.533 3.56v6.336zM126.113 48.062c-1.512 0-2.694-.44-3.546-1.323-.854-.883-1.28-2.097-1.28-3.644 0-1.588.397-2.836 1.188-3.744s1.878-1.362 3.26-1.362c1.284 0 2.298.39 3.042 1.17s1.116 1.85 1.116 3.216v1.116h-6.478c.03.943.284 1.668.765 2.175s1.157.76 2.03.76c.574 0 1.108-.054 1.604-.163s1.027-.29 1.596-.54V47.4c-.504.24-1.014.41-1.53.51s-1.105.15-1.767.15zm-.378-8.508c-.656 0-1.182.208-1.578.624-.395.416-.63 1.022-.707 1.82h4.412c-.012-.804-.205-1.412-.58-1.825s-.89-.62-1.547-.62zM136.108 37.99c.416 0 .76.028 1.028.087l-.202 1.925c-.293-.07-.598-.105-.914-.105-.826 0-1.496.27-2.01.81s-.768 1.238-.768 2.1v5.08h-2.065v-9.72h1.617l.272 1.713h.105c.323-.58.744-1.04 1.262-1.38.52-.34 1.08-.51 1.676-.51zM139.94 47.886h-2.064V34.21h2.065v13.676zM147.915 47.886l-.413-1.354h-.07c-.47.592-.94.995-1.415 1.208s-1.084.32-1.828.32c-.956 0-1.702-.257-2.237-.772-.537-.516-.805-1.245-.805-2.188 0-1.002.372-1.758 1.116-2.268s1.878-.788 3.4-.835l1.68-.053v-.52c0-.62-.146-1.084-.435-1.392-.292-.308-.74-.46-1.35-.46-.5 0-.977.072-1.434.22s-.896.318-1.318.518l-.668-1.477c.527-.275 1.104-.485 1.73-.628s1.22-.215 1.776-.215c1.236 0 2.17.27 2.8.81s.944 1.385.944 2.54v6.547h-1.475zm-3.076-1.407c.75 0 1.35-.21 1.806-.63.453-.418.68-1.005.68-1.76v-.845l-1.247.053c-.974.035-1.682.198-2.123.488-.443.29-.664.734-.664 1.332 0 .434.13.77.387 1.006s.643.355 1.16.355zM159.764 47.886h-2.074V41.91c0-.75-.15-1.31-.452-1.68-.303-.37-.78-.554-1.438-.554-.873 0-1.512.258-1.916.773s-.606 1.38-.606 2.592v4.843h-2.065v-9.72h1.617l.29 1.273h.105c.293-.463.71-.82 1.248-1.072s1.137-.378 1.793-.378c2.332 0 3.498 1.187 3.498 3.56v6.338zM164.854 48.062c-1.213 0-2.16-.44-2.84-1.318s-1.02-2.112-1.02-3.7c0-1.594.345-2.834 1.034-3.722.688-.888 1.642-1.332 2.86-1.332 1.277 0 2.25.472 2.918 1.415h.105c-.1-.697-.148-1.248-.148-1.652V34.21h2.074v13.676h-1.617l-.36-1.274h-.098c-.66.966-1.63 1.45-2.908 1.45zm.554-1.67c.85 0 1.468-.24 1.854-.716s.586-1.252.598-2.325v-.29c0-1.224-.2-2.094-.598-2.61s-1.022-.772-1.872-.772c-.727 0-1.286.294-1.68.883s-.588 1.43-.588 2.52c0 1.077.19 1.9.57 2.464s.954.848 1.716.848zM178.26 45.117c0 .95-.347 1.677-1.038 2.184s-1.682.76-2.97.76c-1.296 0-2.336-.195-3.12-.588v-1.784c1.142.527 2.205.79 3.19.79 1.27 0 1.906-.383 1.906-1.15 0-.246-.07-.45-.21-.615s-.373-.334-.695-.51-.77-.375-1.345-.598c-1.12-.434-1.877-.867-2.27-1.3-.397-.435-.595-.997-.595-1.69 0-.83.335-1.477 1.006-1.937s1.583-.69 2.737-.69c1.143 0 2.224.23 3.243.694l-.668 1.556c-1.05-.434-1.93-.65-2.646-.65-1.09 0-1.635.31-1.635.932 0 .305.143.562.427.773s.904.5 1.86.87c.802.31 1.385.595 1.748.853s.633.555.81.892.264.74.264 1.21z"/></g><g><defs><path id="SVGID_4_" d="M8.91 61h6.79c1.608 0 3.605-1.128 4.433-2.51l5.72-9.52c.676-1.396.653-3.426-.12-4.713l-3.377-5.592L8.91 61z"/></defs><clipPath id="SVGID_5_"><use xlink:href="#SVGID_4_" overflow="visible"/></clipPath><radialGradient id="SVGID_6_" cx="0" cy="188" r="1" gradientTransform="matrix(10.0163 0 0 -10.0163 17.625 1932.897)" gradientUnits="userSpaceOnUse"><stop offset="0" stop-color="#FFCF4F"/><stop offset="1" stop-color="#F4C236"/></radialGradient><path clip-path="url(#SVGID_5_)" fill="url(#SVGID_6_)" d="M8.91 38.665h17.62V61H8.91z"/></g><g><defs><path id="SVGID_7_" d="M2.63 1C1.014 1 .374 2.133 1.204 3.51l24.53 40.747c.77 1.287.794 3.317.117 4.713l5.964-9.925L8.914 1H2.63z"/></defs><clipPath id="SVGID_8_"><use xlink:href="#SVGID_7_" overflow="visible"/></clipPath><radialGradient id="SVGID_9_" cx="0" cy="188" r="1" gradientTransform="matrix(20.1883 0 0 -20.1883 16.328 3820.376)" gradientUnits="userSpaceOnUse"><stop offset="0" stop-color="#567FC0"/><stop offset="1" stop-color="#557FC0"/></radialGradient><path clip-path="url(#SVGID_8_)" fill="url(#SVGID_9_)" d="M.375 1h31.44v47.97H.376z"/></g></g><g><defs><path id="SVGID_10_" d="M8.914 1l22.902 38.045 3.322-5.53c.83-1.385.83-3.645 0-5.024L20.133 3.51C19.305 2.134 17.308 1 15.7 1H8.915z"/></defs><clipPath id="SVGID_11_"><use xlink:href="#SVGID_10_" overflow="visible"/></clipPath><radialGradient id="SVGID_12_" cx="0" cy="187.998" r="1.001" gradientTransform="matrix(16.4625 0 0 -16.4625 22.344 3114.973)" gradientUnits="userSpaceOnUse"><stop offset="0" stop-color="#E14C40"/><stop offset="1" stop-color="#CD392D"/></radialGradient><path clip-path="url(#SVGID_11_)" fill="url(#SVGID_12_)" d="M8.914 1h27.054v38.045H8.914z"/></g><g fill="#4E4E4E"><path d="M115.912 80.967c0 2.676-.73 4.738-2.192 6.186-1.463 1.448-3.518 2.17-6.166 2.17h-5.148V73.29h5.508c2.554 0 4.525.658 5.915 1.974 1.388 1.316 2.082 3.217 2.082 5.703zm-4.462.154c0-1.468-.29-2.558-.865-3.267-.577-.71-1.453-1.064-2.63-1.064h-1.25v8.98h.957c1.307 0 2.264-.38 2.874-1.145.61-.764.914-1.932.914-3.504zM123.152 89.544c-2.054 0-3.647-.55-4.783-1.65s-1.704-2.667-1.704-4.7c0-2.1.525-3.71 1.578-4.832 1.052-1.122 2.554-1.684 4.506-1.684 1.857 0 3.292.488 4.305 1.464 1.012.976 1.52 2.382 1.52 4.217v1.907h-7.61c.03.695.282 1.24.758 1.634.475.396 1.122.593 1.942.593.747 0 1.435-.07 2.062-.214s1.308-.387 2.04-.73v3.082c-.667.344-1.356.58-2.067.713-.712.133-1.56.2-2.548.2zm-.25-9.948c-.5 0-.92.16-1.257.477-.338.318-.536.817-.594 1.497h3.658c-.015-.6-.184-1.078-.506-1.437-.322-.358-.756-.537-1.3-.537zM132.873 89.325L128.17 76.9h4.44l2.09 7.347c.01.037.023.1.045.187s.043.192.065.312c.02.12.04.25.06.384.018.136.027.262.027.378h.076c0-.38.065-.793.195-1.24l2.188-7.37h4.43l-4.702 12.427h-4.21zM146.427 89.325h-4.234V73.29h9.404v3.477h-5.17v3.06h4.767v3.477h-4.767v6.02zM158.573 89.544c-2.054 0-3.647-.55-4.783-1.65s-1.703-2.667-1.703-4.7c0-2.1.525-3.71 1.578-4.832 1.052-1.122 2.554-1.684 4.506-1.684 1.858 0 3.293.488 4.306 1.464 1.012.976 1.52 2.382 1.52 4.217v1.907h-7.61c.03.695.282 1.24.758 1.634.475.396 1.122.593 1.942.593.747 0 1.435-.07 2.062-.214s1.308-.387 2.04-.73v3.082c-.667.344-1.356.58-2.067.713-.71.133-1.56.2-2.547.2zm-.25-9.948c-.5 0-.92.16-1.257.477-.338.318-.536.817-.594 1.497h3.657c-.016-.6-.185-1.078-.507-1.437-.322-.358-.756-.537-1.3-.537zM174.586 85.508c0 1.33-.45 2.336-1.35 3.016-.9.68-2.19 1.02-3.875 1.02-.913 0-1.708-.05-2.383-.148s-1.364-.28-2.067-.543V85.42c.66.292 1.384.534 2.17.724.788.19 1.49.285 2.107.285.92 0 1.382-.213 1.382-.637 0-.22-.13-.415-.387-.586-.258-.172-1.007-.506-2.248-1.004-1.132-.468-1.923-1-2.373-1.596-.45-.596-.675-1.35-.675-2.265 0-1.155.442-2.055 1.328-2.698.885-.644 2.137-.965 3.755-.965.812 0 1.576.09 2.29.268s1.458.44 2.228.784l-1.154 2.764c-.565-.256-1.164-.473-1.796-.652-.63-.18-1.146-.27-1.546-.27-.696 0-1.044.173-1.044.517 0 .213.12.394.364.544s.945.455 2.106.916c.863.358 1.507.71 1.932 1.053s.736.748.936 1.212c.2.463.3 1.028.3 1.693zM181.65 86.155c.573 0 1.26-.143 2.058-.428v3.126c-.573.25-1.12.426-1.64.532-.518.105-1.125.16-1.82.16-1.43 0-2.46-.354-3.093-1.06-.63-.705-.946-1.79-.946-3.25V80.11h-1.492v-1.744l1.894-1.35 1.1-2.61h2.786v2.49h3.025v3.214h-3.025v4.837c0 .803.384 1.205 1.152 1.205z"/></g><g fill="#4E4E4E"><path d="M55.394 110.886h-2.1V99.838h-3.78v-1.802h9.66v1.802h-3.78v11.048zM68.412 110.886h-2.074v-5.977c0-.75-.15-1.31-.453-1.68s-.78-.554-1.437-.554c-.867 0-1.504.26-1.912.777-.407.52-.61 1.388-.61 2.606v4.824H59.86V97.21h2.065v3.472c0 .557-.035 1.15-.105 1.784h.132c.28-.47.672-.832 1.173-1.09s1.085-.387 1.753-.387c2.355 0 3.533 1.186 3.533 3.56v6.336zM74.47 111.062c-1.513 0-2.695-.44-3.547-1.322s-1.28-2.097-1.28-3.644c0-1.588.397-2.836 1.188-3.744s1.88-1.362 3.262-1.362c1.283 0 2.297.39 3.04 1.17s1.117 1.85 1.117 3.216v1.116h-6.48c.03.943.285 1.67.766 2.176s1.157.76 2.03.76c.574 0 1.11-.054 1.604-.162s1.027-.29 1.595-.54v1.678c-.504.24-1.014.41-1.53.51s-1.104.148-1.766.148zm-.38-8.508c-.655 0-1.18.208-1.577.624s-.63 1.022-.708 1.82h4.412c-.012-.804-.205-1.41-.58-1.825-.374-.412-.89-.62-1.546-.62zM94.07 110.886h-2.574l-6.32-10.24h-.07l.045.572c.083 1.09.124 2.086.124 2.988v6.68h-1.907v-12.85h2.55l6.3 10.187h.054c-.01-.135-.034-.625-.07-1.472s-.052-1.507-.052-1.98v-6.733h1.925v12.85zM100.428 111.062c-1.512 0-2.694-.44-3.546-1.322-.854-.882-1.28-2.097-1.28-3.644 0-1.588.397-2.836 1.188-3.744s1.878-1.362 3.26-1.362c1.284 0 2.298.39 3.042 1.17s1.116 1.85 1.116 3.216v1.116H97.73c.03.943.284 1.67.765 2.176s1.157.76 2.03.76c.574 0 1.108-.054 1.604-.162s1.026-.29 1.595-.54v1.678c-.504.24-1.014.41-1.53.51s-1.105.148-1.767.148zm-.378-8.508c-.656 0-1.182.208-1.578.624-.395.416-.63 1.022-.707 1.82h4.412c-.012-.804-.205-1.41-.58-1.825-.375-.412-.89-.62-1.547-.62zM109.112 109.392c.504 0 1.008-.08 1.512-.237v1.556c-.23.1-.523.184-.883.25-.36.068-.733.103-1.12.103-1.957 0-2.936-1.03-2.936-3.094v-5.24h-1.327v-.913l1.424-.756.704-2.056h1.274v2.162h2.77v1.564h-2.77v5.203c0 .498.124.865.373 1.104.25.235.578.355.982.355zM120.057 110.886h-2.074v-5.977c0-.75-.15-1.31-.452-1.68-.302-.37-.78-.554-1.437-.554-.867 0-1.505.26-1.912.777-.406.52-.61 1.388-.61 2.606v4.824h-2.064V97.21h2.065v3.472c0 .557-.034 1.15-.104 1.784h.132c.28-.47.672-.832 1.174-1.09.5-.258 1.085-.387 1.753-.387 2.355 0 3.533 1.186 3.533 3.56v6.336zM126.113 111.062c-1.512 0-2.694-.44-3.546-1.322-.854-.882-1.28-2.097-1.28-3.644 0-1.588.397-2.836 1.188-3.744s1.878-1.362 3.26-1.362c1.284 0 2.298.39 3.042 1.17s1.116 1.85 1.116 3.216v1.116h-6.478c.03.943.284 1.67.765 2.176s1.157.76 2.03.76c.574 0 1.108-.054 1.604-.162s1.027-.29 1.596-.54v1.678c-.504.24-1.014.41-1.53.51s-1.105.148-1.767.148zm-.378-8.508c-.656 0-1.182.208-1.578.624-.395.416-.63 1.022-.707 1.82h4.412c-.012-.804-.205-1.41-.58-1.825-.375-.412-.89-.62-1.547-.62zM136.108 100.99c.416 0 .76.028 1.028.087l-.202 1.925c-.293-.07-.598-.105-.914-.105-.826 0-1.496.27-2.01.81s-.768 1.238-.768 2.1v5.08h-2.065v-9.72h1.617l.272 1.713h.105c.323-.58.744-1.04 1.262-1.38.52-.34 1.08-.51 1.676-.51zM139.94 110.886h-2.064V97.21h2.065v13.676zM147.915 110.886l-.413-1.354h-.07c-.47.592-.94.995-1.415 1.21-.475.212-1.084.32-1.828.32-.956 0-1.702-.26-2.237-.774-.537-.516-.805-1.245-.805-2.188 0-1.002.372-1.758 1.116-2.268s1.878-.788 3.4-.835l1.68-.053v-.52c0-.62-.146-1.084-.435-1.393-.292-.306-.74-.46-1.35-.46-.5 0-.977.073-1.434.22s-.896.32-1.318.52l-.668-1.478c.527-.275 1.104-.484 1.73-.63.628-.142 1.22-.214 1.776-.214 1.236 0 2.17.27 2.8.81s.944 1.385.944 2.54v6.547h-1.475zm-3.076-1.407c.75 0 1.35-.21 1.806-.63.453-.418.68-1.006.68-1.762v-.844l-1.247.053c-.974.035-1.682.197-2.123.488-.443.29-.664.733-.664 1.33 0 .435.13.77.387 1.008.257.237.643.356 1.16.356zM159.764 110.886h-2.074v-5.977c0-.75-.15-1.31-.452-1.68-.303-.37-.78-.554-1.438-.554-.873 0-1.512.258-1.916.773s-.606 1.38-.606 2.592v4.843h-2.065v-9.72h1.617l.29 1.273h.105c.293-.463.71-.82 1.248-1.072s1.137-.378 1.793-.378c2.332 0 3.498 1.187 3.498 3.56v6.338zM164.854 111.062c-1.213 0-2.16-.44-2.84-1.318s-1.02-2.112-1.02-3.7c0-1.594.345-2.835 1.034-3.722.688-.89 1.642-1.332 2.86-1.332 1.277 0 2.25.472 2.918 1.415h.105c-.1-.697-.148-1.248-.148-1.652V97.21h2.074v13.676h-1.617l-.36-1.274h-.098c-.66.966-1.63 1.45-2.908 1.45zm.554-1.67c.85 0 1.468-.238 1.854-.717.387-.477.586-1.252.598-2.324v-.29c0-1.224-.2-2.094-.598-2.61s-1.022-.772-1.872-.772c-.727 0-1.286.295-1.68.883-.392.59-.588 1.43-.588 2.52 0 1.078.19 1.9.57 2.466s.954.846 1.716.846zM178.26 108.117c0 .95-.347 1.678-1.038 2.185s-1.682.76-2.97.76c-1.296 0-2.336-.196-3.12-.59v-1.783c1.142.526 2.205.79 3.19.79 1.27 0 1.906-.384 1.906-1.15 0-.247-.07-.452-.21-.616s-.373-.334-.695-.51-.77-.375-1.345-.598c-1.12-.434-1.877-.867-2.27-1.3-.397-.435-.595-.997-.595-1.69 0-.83.335-1.477 1.006-1.937.67-.46 1.583-.69 2.737-.69 1.143 0 2.224.23 3.243.694l-.668 1.556c-1.05-.434-1.93-.65-2.646-.65-1.09 0-1.635.31-1.635.932 0 .305.143.562.427.773s.904.5 1.86.87c.802.31 1.385.595 1.748.853s.633.556.81.893.264.738.264 1.207z"/></g><g><path fill="#4E4E4E" d="M55.57 80.313h6.923v8.644c-1.88.644-3.945.965-6.198.965-2.472 0-4.382-.716-5.73-2.15-1.35-1.433-2.025-3.477-2.025-6.132 0-2.59.74-4.603 2.216-6.044 1.477-1.44 3.547-2.16 6.208-2.16 1.01 0 1.962.094 2.858.284.896.19 1.676.432 2.342.724l-1.37 3.4c-1.157-.57-2.425-.855-3.808-.855-1.265 0-2.243.41-2.934 1.233-.69.823-1.037 2-1.037 3.527 0 1.5.312 2.642.938 3.428.625.786 1.526 1.18 2.704 1.18.644 0 1.236-.063 1.777-.188v-2.512H55.57v-3.345z"/></g><g fill="#4E4E4E"><path d="M78.02 81.344c0 2.676-.736 4.74-2.21 6.187s-3.544 2.173-6.213 2.173H64.41V73.666h5.55c2.574 0 4.56.658 5.96 1.975s2.1 3.218 2.1 5.704zm-4.496.154c0-1.47-.29-2.56-.872-3.27-.582-.708-1.464-1.063-2.65-1.063h-1.26v8.983h.964c1.316 0 2.282-.382 2.896-1.146s.922-1.932.922-3.504zM86.008 80.313h6.92v8.644c-1.878.644-3.944.965-6.196.965-2.472 0-4.382-.716-5.73-2.15-1.35-1.433-2.025-3.477-2.025-6.132 0-2.59.74-4.603 2.216-6.044 1.477-1.44 3.547-2.16 6.208-2.16 1.01 0 1.963.094 2.86.284.895.19 1.675.432 2.34.724l-1.37 3.4c-1.157-.57-2.425-.855-3.808-.855-1.265 0-2.243.41-2.934 1.233-.69.823-1.037 2-1.037 3.527 0 1.5.313 2.642.94 3.428.624.786 1.525 1.18 2.703 1.18.644 0 1.236-.063 1.777-.188v-2.512h-2.863v-3.345z"/></g><g><defs><path id="SVGID_13_" d="M8.91 124h6.79c1.608 0 3.605-1.128 4.433-2.51l5.72-9.52c.676-1.397.653-3.427-.12-4.714l-3.377-5.592L8.91 124z"/></defs><clipPath id="SVGID_14_"><use xlink:href="#SVGID_13_" overflow="visible"/></clipPath><radialGradient id="SVGID_15_" cx="0" cy="188" r="1" gradientTransform="matrix(10.0163 0 0 -10.0163 17.625 1995.89)" gradientUnits="userSpaceOnUse"><stop offset="0" stop-color="#D2D3D5"/><stop offset="1" stop-color="#C7C9CA"/></radialGradient><path clip-path="url(#SVGID_14_)" fill="url(#SVGID_15_)" d="M8.91 101.665h17.62V124H8.91z"/></g><g><defs><path id="SVGID_16_" d="M16.21 96.514l-15.102 25.25C.525 123.01 1.13 124 2.628 124H8.91l13.446-22.335L16.21 91.49c.83 1.38.83 3.64 0 5.024"/></defs><clipPath id="SVGID_17_"><use xlink:href="#SVGID_16_" overflow="visible"/></clipPath><radialGradient id="SVGID_18_" cx="0" cy="188" r="1" gradientTransform="matrix(13.7733 0 0 -13.7733 11.625 2697.13)" gradientUnits="userSpaceOnUse"><stop offset="0" stop-color="#ADAFB1"/><stop offset="1" stop-color="#909295"/></radialGradient><path clip-path="url(#SVGID_17_)" fill="url(#SVGID_18_)" d="M.525 91.49h21.83V124H.526z"/></g><g><defs><path id="SVGID_19_" d="M2.63 64c-1.615 0-2.255 1.133-1.425 2.51l24.53 40.747c.77 1.287.794 3.317.117 4.713l5.964-9.925L8.914 64H2.63z"/></defs><clipPath id="SVGID_20_"><use xlink:href="#SVGID_19_" overflow="visible"/></clipPath><radialGradient id="SVGID_21_" cx="0" cy="188" r="1" gradientTransform="matrix(20.1883 0 0 -20.1883 16.328 3883.376)" gradientUnits="userSpaceOnUse"><stop offset="0" stop-color="#96989B"/><stop offset="1" stop-color="#96989B"/></radialGradient><path clip-path="url(#SVGID_20_)" fill="url(#SVGID_21_)" d="M.375 64h31.44v47.97H.376z"/></g><g><defs><path id="SVGID_22_" d="M8.914 64l22.902 38.045 3.322-5.53c.83-1.385.83-3.645 0-5.023l-15.005-24.98C19.305 65.132 17.308 64 15.7 64H8.915z"/></defs><clipPath id="SVGID_23_"><use xlink:href="#SVGID_22_" overflow="visible"/></clipPath><radialGradient id="SVGID_24_" cx="0" cy="187.999" r="1.001" gradientTransform="matrix(16.4625 0 0 -16.4625 22.344 3177.973)" gradientUnits="userSpaceOnUse"><stop offset="0" stop-color="#7D7F82"/><stop offset="1" stop-color="#696A6C"/></radialGradient><path clip-path="url(#SVGID_23_)" fill="url(#SVGID_24_)" d="M8.914 64h27.054v38.045H8.914z"/></g><g fill="#E6E6E5"><path d="M116.07 143.967c0 2.676-.73 4.738-2.192 6.186-1.463 1.448-3.518 2.172-6.166 2.172h-5.148V136.29h5.508c2.554 0 4.525.658 5.915 1.975s2.083 3.215 2.083 5.702zm-4.462.153c0-1.47-.29-2.56-.865-3.27-.577-.708-1.453-1.062-2.63-1.062h-1.25v8.982h.957c1.307 0 2.264-.382 2.874-1.146.61-.764.914-1.932.914-3.504zM123.31 152.544c-2.053 0-3.646-.55-4.782-1.65-1.136-1.1-1.703-2.668-1.703-4.7 0-2.1.525-3.71 1.578-4.83 1.052-1.124 2.554-1.685 4.506-1.685 1.856 0 3.29.486 4.304 1.463 1.012.977 1.52 2.382 1.52 4.217v1.91h-7.61c.03.693.282 1.238.758 1.633.475.395 1.122.592 1.942.592.747 0 1.435-.07 2.062-.214s1.308-.384 2.04-.728v3.08c-.667.345-1.356.583-2.067.714-.714.132-1.562.198-2.55.198zm-.25-9.948c-.5 0-.92.16-1.256.478-.338.317-.536.816-.594 1.497h3.657c-.015-.6-.184-1.078-.506-1.437-.322-.358-.756-.537-1.3-.537zM133.03 152.324l-4.7-12.427h4.44l2.09 7.35c.007.036.02.098.043.186s.043.192.065.312c.02.12.04.25.06.384.018.135.027.26.027.378h.076c0-.38.066-.794.196-1.24l2.188-7.37h4.43l-4.702 12.427h-4.21zM146.585 152.324h-4.234V136.29h9.405v3.477h-5.17v3.06h4.767v3.477h-4.767v6.02zM158.73 152.544c-2.053 0-3.646-.55-4.782-1.65-1.136-1.1-1.703-2.668-1.703-4.7 0-2.1.525-3.71 1.578-4.83 1.052-1.124 2.554-1.685 4.506-1.685 1.856 0 3.29.486 4.304 1.463 1.012.977 1.52 2.382 1.52 4.217v1.91h-7.61c.03.693.282 1.238.758 1.633.475.395 1.122.592 1.942.592.747 0 1.435-.07 2.062-.214s1.308-.384 2.04-.728v3.08c-.667.345-1.356.583-2.067.714-.713.132-1.56.198-2.55.198zm-.25-9.948c-.5 0-.92.16-1.256.478-.338.317-.536.816-.594 1.497h3.657c-.015-.6-.184-1.078-.506-1.437-.32-.358-.755-.537-1.3-.537zM174.744 148.508c0 1.33-.45 2.336-1.35 3.016-.9.68-2.19 1.02-3.875 1.02-.915 0-1.71-.05-2.385-.147s-1.364-.28-2.067-.543v-3.433c.66.293 1.384.534 2.17.725s1.49.285 2.107.285c.92 0 1.382-.212 1.382-.636 0-.22-.13-.415-.386-.587-.257-.172-1.006-.507-2.247-1.004-1.132-.468-1.923-1-2.373-1.596-.45-.596-.675-1.35-.675-2.265 0-1.155.442-2.055 1.328-2.698.885-.644 2.137-.965 3.755-.965.812 0 1.576.088 2.29.268.716.18 1.458.44 2.228.784l-1.154 2.764c-.565-.256-1.164-.474-1.796-.652-.63-.18-1.146-.27-1.546-.27-.696 0-1.044.173-1.044.516 0 .213.12.394.364.543.243.15.945.456 2.106.916.863.357 1.507.71 1.932 1.052.425.344.736.748.936 1.212.2.463.3 1.028.3 1.694zM181.81 149.154c.572 0 1.258-.143 2.057-.428v3.126c-.573.25-1.12.426-1.64.532-.518.105-1.125.16-1.82.16-1.43 0-2.46-.355-3.093-1.06-.63-.706-.946-1.79-.946-3.252v-5.122h-1.49v-1.744l1.893-1.35 1.1-2.61h2.787v2.49h3.025v3.214h-3.025v4.837c-.002.806.383 1.207 1.152 1.207z"/></g><g fill="#E6E6E5"><path d="M55.235 173.886h-2.1v-11.048h-3.78v-1.802h9.66v1.802h-3.78v11.048zM68.235 173.886H66.16v-5.977c0-.75-.15-1.31-.452-1.68s-.78-.554-1.437-.554c-.866 0-1.503.26-1.91.777-.408.52-.612 1.388-.612 2.606v4.824h-2.065V160.21h2.065v3.472c0 .557-.035 1.15-.105 1.784h.132c.28-.47.672-.832 1.173-1.09s1.085-.387 1.753-.387c2.356 0 3.534 1.186 3.534 3.56v6.336zM74.274 174.062c-1.512 0-2.694-.44-3.546-1.322s-1.28-2.097-1.28-3.644c0-1.588.397-2.836 1.188-3.744s1.878-1.362 3.26-1.362c1.284 0 2.298.39 3.042 1.17s1.116 1.85 1.116 3.216v1.116h-6.478c.03.943.284 1.67.765 2.176s1.158.76 2.03.76c.575 0 1.11-.054 1.605-.162s1.027-.29 1.595-.54v1.678c-.504.24-1.014.41-1.53.51s-1.104.148-1.766.148zm-.378-8.508c-.656 0-1.182.208-1.578.624s-.63 1.022-.708 1.82h4.412c-.012-.804-.205-1.41-.58-1.825-.374-.412-.89-.62-1.546-.62zM93.84 173.886h-2.574l-6.32-10.24h-.07l.045.572c.083 1.09.124 2.086.124 2.988v6.68h-1.907v-12.85h2.55l6.3 10.187h.054c-.01-.135-.034-.625-.07-1.472s-.052-1.507-.052-1.98v-6.733h1.925v12.85zM100.18 174.062c-1.513 0-2.695-.44-3.547-1.322-.854-.882-1.28-2.097-1.28-3.644 0-1.588.397-2.836 1.188-3.744s1.88-1.362 3.262-1.362c1.283 0 2.297.39 3.04 1.17s1.117 1.85 1.117 3.216v1.116h-6.48c.03.943.284 1.67.765 2.176s1.157.76 2.03.76c.574 0 1.108-.054 1.604-.162s1.026-.29 1.595-.54v1.678c-.504.24-1.014.41-1.53.51s-1.104.148-1.766.148zm-.38-8.508c-.655 0-1.18.208-1.577.624-.395.416-.63 1.022-.707 1.82h4.412c-.012-.804-.205-1.41-.58-1.825-.375-.412-.89-.62-1.547-.62zM108.846 172.392c.504 0 1.008-.08 1.512-.237v1.556c-.23.1-.523.184-.883.25-.36.068-.734.103-1.12.103-1.958 0-2.937-1.03-2.937-3.094v-5.24h-1.327v-.913l1.425-.756.703-2.056h1.274v2.162h2.77v1.564h-2.77v5.203c0 .498.124.865.373 1.104.25.235.576.355.98.355zM119.77 173.886h-2.073v-5.977c0-.75-.15-1.31-.452-1.68-.303-.37-.78-.554-1.438-.554-.867 0-1.505.26-1.912.777-.407.52-.61 1.388-.61 2.606v4.824h-2.065V160.21h2.065v3.472c0 .557-.035 1.15-.105 1.784h.132c.28-.47.672-.832 1.174-1.09.5-.258 1.085-.387 1.753-.387 2.354 0 3.532 1.186 3.532 3.56v6.336zM125.81 174.062c-1.51 0-2.693-.44-3.545-1.322-.854-.882-1.28-2.097-1.28-3.644 0-1.588.397-2.836 1.188-3.744s1.878-1.362 3.26-1.362c1.284 0 2.298.39 3.042 1.17s1.116 1.85 1.116 3.216v1.116h-6.477c.03.943.284 1.67.765 2.176s1.157.76 2.03.76c.574 0 1.108-.054 1.604-.162s1.027-.29 1.596-.54v1.678c-.504.24-1.014.41-1.53.51s-1.105.148-1.767.148zm-.377-8.508c-.656 0-1.182.208-1.578.624-.395.416-.63 1.022-.707 1.82h4.412c-.012-.804-.205-1.41-.58-1.825-.376-.412-.89-.62-1.547-.62zM135.787 163.99c.416 0 .76.028 1.028.087l-.202 1.925c-.293-.07-.598-.105-.914-.105-.827 0-1.497.27-2.01.81s-.77 1.238-.77 2.1v5.08h-2.064v-9.72h1.617l.272 1.713h.105c.322-.58.743-1.04 1.26-1.38.522-.34 1.08-.51 1.677-.51zM139.603 173.886h-2.065V160.21h2.065v13.676zM147.558 173.886l-.413-1.354h-.07c-.47.592-.94.995-1.415 1.21-.475.212-1.084.32-1.828.32-.955 0-1.7-.26-2.236-.774-.537-.516-.805-1.245-.805-2.188 0-1.002.373-1.758 1.117-2.268s1.878-.788 3.4-.835l1.68-.053v-.52c0-.62-.146-1.084-.435-1.393-.29-.306-.74-.46-1.35-.46-.498 0-.976.073-1.433.22s-.897.32-1.32.52l-.667-1.478c.527-.275 1.104-.484 1.73-.63.628-.142 1.22-.214 1.776-.214 1.235 0 2.168.27 2.798.81s.945 1.385.945 2.54v6.547h-1.475zm-3.077-1.407c.75 0 1.353-.21 1.808-.63.453-.418.68-1.006.68-1.762v-.844l-1.247.053c-.972.035-1.68.197-2.12.488-.444.29-.665.733-.665 1.33 0 .435.13.77.387 1.008.257.237.644.356 1.16.356zM159.39 173.886h-2.075v-5.977c0-.75-.15-1.31-.452-1.68-.303-.37-.78-.554-1.438-.554-.873 0-1.512.258-1.916.773s-.607 1.38-.607 2.592v4.843h-2.065v-9.72h1.617l.29 1.273h.105c.293-.463.71-.82 1.248-1.072s1.137-.378 1.793-.378c2.333 0 3.5 1.187 3.5 3.56v6.338zM164.462 174.062c-1.213 0-2.16-.44-2.84-1.318s-1.02-2.112-1.02-3.7c0-1.594.345-2.835 1.034-3.722.688-.89 1.642-1.332 2.86-1.332 1.277 0 2.25.472 2.918 1.415h.105c-.1-.697-.15-1.248-.15-1.652v-3.542h2.074v13.677h-1.617l-.36-1.274h-.097c-.66.965-1.63 1.45-2.908 1.45zm.554-1.67c.85 0 1.468-.238 1.854-.717.387-.477.586-1.252.598-2.324v-.29c0-1.224-.2-2.094-.598-2.61s-1.022-.772-1.872-.772c-.727 0-1.286.295-1.68.883-.392.59-.588 1.43-.588 2.52 0 1.078.19 1.9.57 2.466s.954.846 1.716.846zM177.85 171.117c0 .95-.347 1.678-1.038 2.185s-1.682.76-2.97.76c-1.296 0-2.336-.196-3.12-.59v-1.783c1.142.526 2.205.79 3.19.79 1.27 0 1.906-.384 1.906-1.15 0-.247-.07-.452-.21-.616s-.373-.334-.695-.51-.77-.375-1.345-.598c-1.12-.434-1.877-.867-2.27-1.3-.397-.435-.595-.997-.595-1.69 0-.83.335-1.477 1.006-1.937.67-.46 1.583-.69 2.737-.69 1.143 0 2.224.23 3.243.694l-.668 1.556c-1.05-.434-1.93-.65-2.646-.65-1.09 0-1.635.31-1.635.932 0 .305.143.562.427.773s.904.5 1.86.87c.802.31 1.385.595 1.748.853s.633.556.81.893.264.738.264 1.207z"/></g><g><path fill="#E6E6E5" d="M55.73 143.313h6.92v8.644c-1.878.644-3.944.966-6.197.966-2.472 0-4.382-.717-5.73-2.15s-2.025-3.478-2.025-6.132c0-2.588.74-4.603 2.216-6.043s3.547-2.16 6.208-2.16c1.01 0 1.962.095 2.858.284.896.19 1.676.433 2.342.726l-1.37 3.4c-1.157-.57-2.425-.855-3.808-.855-1.265 0-2.243.412-2.934 1.234-.69.823-1.037 1.998-1.037 3.526 0 1.5.312 2.643.938 3.43.626.785 1.527 1.178 2.705 1.178.644 0 1.236-.062 1.777-.187v-2.51H55.73v-3.347z"/></g><g fill="#E6E6E5"><path d="M78.18 144.345c0 2.677-.737 4.738-2.21 6.187s-3.545 2.172-6.214 2.172h-5.188v-16.037h5.55c2.575 0 4.562.658 5.962 1.975s2.1 3.216 2.1 5.703zm-4.497.153c0-1.47-.29-2.56-.872-3.27s-1.463-1.063-2.648-1.063H68.9v8.984h.965c1.316 0 2.282-.384 2.896-1.147.615-.765.923-1.933.923-3.505zM86.167 143.313h6.922v8.644c-1.88.644-3.946.966-6.2.966-2.47 0-4.38-.717-5.73-2.15s-2.024-3.478-2.024-6.132c0-2.588.74-4.603 2.216-6.043s3.547-2.16 6.208-2.16c1.01 0 1.962.095 2.858.284.896.19 1.676.433 2.342.726l-1.37 3.4c-1.157-.57-2.425-.855-3.808-.855-1.265 0-2.243.412-2.934 1.234-.69.823-1.037 1.998-1.037 3.526 0 1.5.313 2.643.94 3.43.624.785 1.525 1.178 2.703 1.178.644 0 1.236-.062 1.777-.187v-2.51h-2.863v-3.347z"/></g><g><defs><path id="SVGID_25_" d="M9.068 187h6.792c1.606 0 3.603-1.128 4.43-2.51l5.72-9.52c.678-1.397.654-3.427-.118-4.714l-3.378-5.592L9.068 187z"/></defs><clipPath id="SVGID_26_"><use xlink:href="#SVGID_25_" overflow="visible"/></clipPath><radialGradient id="SVGID_27_" cx="0" cy="187.998" r="1.001" gradientTransform="matrix(10.0163 0 0 -10.0163 17.78 2058.89)" gradientUnits="userSpaceOnUse"><stop offset="0" stop-color="#FFCF4F"/><stop offset="1" stop-color="#F4C236"/></radialGradient><path clip-path="url(#SVGID_26_)" fill="url(#SVGID_27_)" d="M9.068 164.665h17.62V187H9.068z"/></g><g><defs><path id="SVGID_28_" d="M16.367 159.514l-15.1 25.25C.682 186.01 1.288 187 2.786 187h6.28l13.447-22.335-6.147-10.174c.83 1.38.83 3.64 0 5.024"/></defs><clipPath id="SVGID_29_"><use xlink:href="#SVGID_28_" overflow="visible"/></clipPath><radialGradient id="SVGID_30_" cx="0" cy="188" r="1" gradientTransform="matrix(13.7733 0 0 -13.7733 11.78 2760.13)" gradientUnits="userSpaceOnUse"><stop offset="0" stop-color="#09A960"/><stop offset="1" stop-color="#08914B"/></radialGradient><path clip-path="url(#SVGID_29_)" fill="url(#SVGID_30_)" d="M.683 154.49h21.83V187H.684z"/></g><g><defs><path id="SVGID_31_" d="M2.787 127c-1.613 0-2.253 1.133-1.424 2.51l24.53 40.747c.77 1.287.795 3.317.118 4.713l5.964-9.925L9.072 127H2.787z"/></defs><clipPath id="SVGID_32_"><use xlink:href="#SVGID_31_" overflow="visible"/></clipPath><radialGradient id="SVGID_33_" cx="0" cy="188" r="1" gradientTransform="matrix(20.1883 0 0 -20.1883 16.484 3946.376)" gradientUnits="userSpaceOnUse"><stop offset="0" stop-color="#567FC0"/><stop offset="1" stop-color="#557FC0"/></radialGradient><path clip-path="url(#SVGID_32_)" fill="url(#SVGID_33_)" d="M.534 127h31.44v47.97H.534z"/></g><g><defs><path id="SVGID_34_" d="M9.072 127l22.902 38.045 3.322-5.53c.83-1.385.83-3.645 0-5.023l-15.005-24.98c-.827-1.38-2.824-2.512-4.43-2.512H9.072z"/></defs><clipPath id="SVGID_35_"><use xlink:href="#SVGID_34_" overflow="visible"/></clipPath><radialGradient id="SVGID_36_" cx="0" cy="187.999" r="1.001" gradientTransform="matrix(16.4625 0 0 -16.4625 22.5 3240.973)" gradientUnits="userSpaceOnUse"><stop offset="0" stop-color="#E14C40"/><stop offset="1" stop-color="#CD392D"/></radialGradient><path clip-path="url(#SVGID_35_)" fill="url(#SVGID_36_)" d="M9.072 127h27.054v38.045H9.072z"/></g></svg>